<?xml version="1.0" encoding="UTF-8" standalone="no"?>
<svg width="23px" height="42px" viewBox="0 0 23 42" version="1.1" xmlns="http://www.w3.org/2000/svg" xmlns:xlink="http://www.w3.org/1999/xlink">
    <!-- Generator: sketchtool 40 (33762) - http://www.bohemiancoding.com/sketch -->
    <title>63D656E4-7909-46DA-99AF-47ABF7D470BC</title>
    <desc>Created with sketchtool.</desc>
    <defs>
        <polygon id="path-1" points="1.35525272e-20 0.2268 1.35525272e-20 32.2698 14.3928603 32.2698 14.3928603 0.2268 0 0.2268"></polygon>
        <polygon id="path-3" points="0 42 22.799 42 22.799 0.09 0 0.09"></polygon>
    </defs>
    <g id="Main-Screens" stroke="none" stroke-width="1" fill="none" fill-rule="evenodd">
        <g id="Locations" transform="translate(-22.000000, -154.000000)">
            <g id="Group-2">
                <g id="icon_nav_products" transform="translate(22.000000, 153.000000)">
                    <polygon id="Fill-1" fill="#18A6B9" points="11.8827 10.6989 9.2597 10.6989 10.6877 41.6169 13.8307 41.6169"></polygon>
                    <g id="Group-20" transform="translate(0.000000, 0.909500)">
                        <g id="Group-4" transform="translate(0.000000, 9.000000)">
                            <mask id="mask-2" fill="white">
                                <use xlink:href="#path-1"></use>
                            </mask>
                            <g id="Clip-3"></g>
                            <path d="M1.1617,31.1448 L13.2317,31.1448 L11.3547,1.3518 L3.0377,1.3518 L1.1617,31.1448 Z M13.8307,32.2698 L0.5627,32.2698 C0.4077,32.2698 0.2587,32.2058 0.1527,32.0918 C0.0467,31.9788 -0.0083,31.8268 0.0007,31.6718 L1.9487,0.7538 C1.9677,0.4578 2.2127,0.2268 2.5097,0.2268 L11.8827,0.2268 C12.1797,0.2268 12.4257,0.4578 12.4437,0.7538 L14.3917,31.6718 C14.4017,31.8268 14.3467,31.9788 14.2407,32.0918 C14.1337,32.2058 13.9857,32.2698 13.8307,32.2698 L13.8307,32.2698 Z" id="Fill-2" fill="#FFFFFF" mask="url(#mask-2)"></path>
                        </g>
                        <polygon id="Fill-5" fill="#18A6B9" points="8.9613 1.5123 7.3063 1.5123 8.2073 9.5463 9.9353 9.5463"></polygon>
                        <path d="M5.0922,8.9835 L9.3002,8.9835 L8.4632,2.0745 L5.9302,2.0745 L5.0922,8.9835 Z M9.9352,10.1085 L4.4572,10.1085 C4.2962,10.1085 4.1432,10.0395 4.0362,9.9195 C3.9302,9.7985 3.8792,9.6385 3.8992,9.4785 L4.8732,1.4445 C4.9072,1.1615 5.1472,0.9495 5.4312,0.9495 L8.9612,0.9495 C9.2462,0.9495 9.4852,1.1615 9.5192,1.4445 L10.4932,9.4785 C10.5132,9.6385 10.4622,9.7985 10.3562,9.9195 C10.2492,10.0395 10.0962,10.1085 9.9352,10.1085 L9.9352,10.1085 Z" id="Fill-7" fill="#FFFFFF"></path>
                        <polygon id="Fill-9" fill="#FFFFFF" points="13.2217 31.4004 5.4877 31.4004 5.4877 17.3924 12.3697 17.3924 12.3697 17.7674 5.8627 17.7674 5.8627 31.0254 13.2217 31.0254"></polygon>
                        <mask id="mask-4" fill="white">
                            <use xlink:href="#path-3"></use>
                        </mask>
                        <g id="Clip-12"></g>
                        <polygon id="Fill-11" fill="#FFFFFF" mask="url(#mask-4)" points="12.491 38.339 14.195 38.339 14.195 37.964 12.491 37.964"></polygon>
                        <polygon id="Fill-13" fill="#FFFFFF" mask="url(#mask-4)" points="1.05 38.46 10.666 38.46 10.666 38.085 1.05 38.085"></polygon>
                        <path d="M18.5703,38.8441 L18.5703,39.6041 C18.5703,40.6171 19.3913,41.4371 20.4033,41.4371 C21.4153,41.4371 22.2363,40.6171 22.2363,39.6041 L22.2363,38.8441 L18.5703,38.8441 Z" id="Fill-14" fill="#18A6B9" mask="url(#mask-4)"></path>
                        <path d="M19.018,8.568 L21.674,8.568 L21.674,1.215 L19.018,1.215 L19.018,8.568 Z M19.133,39.631 C19.147,40.319 19.711,40.875 20.403,40.875 C21.104,40.875 21.674,40.305 21.674,39.605 L21.674,16.911 L21.483,16.911 L19.133,39.631 Z M20.403,42 C19.082,42 18.008,40.926 18.008,39.605 C18.008,39.585 18.009,39.566 18.011,39.547 L20.417,16.29 C20.446,16.003 20.688,15.786 20.976,15.786 L21.674,15.786 L21.674,9.693 L18.456,9.693 C18.145,9.693 17.893,9.441 17.893,9.131 L17.893,0.653 C17.893,0.342 18.145,0.09 18.456,0.09 L22.236,0.09 C22.547,0.09 22.799,0.342 22.799,0.653 L22.799,39.605 C22.799,40.926 21.724,42 20.403,42 L20.403,42 Z" id="Fill-15" fill="#FFFFFF" mask="url(#mask-4)"></path>
                        <polygon id="Fill-16" fill="#FFFFFF" mask="url(#mask-4)" points="18.455 7.485 22.236 7.485 22.236 7.11 18.455 7.11"></polygon>
                        <polygon id="Fill-17" fill="#FFFFFF" mask="url(#mask-4)" points="18.455 5.194 22.236 5.194 22.236 4.819 18.455 4.819"></polygon>
                        <polygon id="Fill-18" fill="#FFFFFF" mask="url(#mask-4)" points="18.455 2.903 22.236 2.903 22.236 2.528 18.455 2.528"></polygon>
                        <polygon id="Fill-19" fill="#FFFFFF" mask="url(#mask-4)" points="18.685 38.875 22.351 38.875 22.351 38.5 18.685 38.5"></polygon>
                    </g>
                </g>
            </g>
        </g>
    </g>
</svg>