<?xml version="1.0" encoding="UTF-8" standalone="no"?>
<svg width="32px" height="42px" viewBox="0 0 32 42" version="1.1" xmlns="http://www.w3.org/2000/svg" xmlns:xlink="http://www.w3.org/1999/xlink">
    <!-- Generator: sketchtool 40 (33762) - http://www.bohemiancoding.com/sketch -->
    <title>F569AE14-DB42-4A73-87C9-585D5DB56FD0</title>
    <desc>Created with sketchtool.</desc>
    <defs>
        <polygon id="path-1" points="31.3435 37 0 37 0 0.1204 31.3435 0.1204 31.3435 37"></polygon>
        <polygon id="path-3" points="0 41.8583 31.344 41.8583 31.344 0.0003 0 0.0003"></polygon>
    </defs>
    <g id="Main-Screens" stroke="none" stroke-width="1" fill="none" fill-rule="evenodd">
        <g id="Locations" transform="translate(-19.000000, -83.000000)">
            <g id="Group-2">
                <g id="SideNav">
                    <g id="icon_nav_orders" transform="translate(19.000000, 83.000000)">
                        <g id="Page-1">
                            <g id="Group-3" transform="translate(0.000000, 4.858300)">
                                <mask id="mask-2" fill="white">
                                    <use xlink:href="#path-1"></use>
                                </mask>
                                <g id="Clip-2"></g>
                                <path d="M2.6385,1.2454 C1.8035,1.2454 1.1245,1.9244 1.1245,2.7594 L1.1245,34.3614 C1.1245,35.1964 1.8035,35.8754 2.6385,35.8754 L28.7055,35.8754 C29.5395,35.8754 30.2185,35.1964 30.2185,34.3614 L30.2185,2.7594 C30.2185,1.9244 29.5395,1.2454 28.7055,1.2454 L2.6385,1.2454 Z M28.7055,37.0004 L2.6385,37.0004 C1.1835,37.0004 -0.0005,35.8164 -0.0005,34.3614 L-0.0005,2.7594 C-0.0005,1.3044 1.1835,0.1204 2.6385,0.1204 L28.7055,0.1204 C30.1595,0.1204 31.3435,1.3044 31.3435,2.7594 L31.3435,34.3614 C31.3435,35.8164 30.1595,37.0004 28.7055,37.0004 L28.7055,37.0004 Z" id="Fill-1" fill="#FFFFFF" mask="url(#mask-2)"></path>
                            </g>
                            <mask id="mask-4" fill="white">
                                <use xlink:href="#path-3"></use>
                            </mask>
                            <g id="Clip-5"></g>
                            <polygon id="Fill-4" fill="#18A6B9" mask="url(#mask-4)" points="4.926 40.1223 29.608 40.1223 29.608 9.9043 4.926 9.9043"></polygon>
                            <polygon id="Fill-6" fill="#33C6D9" mask="url(#mask-4)" points="3.331 38.5273 28.013 38.5273 28.013 8.3093 3.331 8.3093"></polygon>
                            <path d="M3.893,37.9653 L27.45,37.9653 L27.45,8.8713 L3.893,8.8713 L3.893,37.9653 Z M28.013,39.0903 L3.331,39.0903 C3.02,39.0903 2.768,38.8383 2.768,38.5273 L2.768,8.3093 C2.768,7.9983 3.02,7.7463 3.331,7.7463 L28.013,7.7463 C28.323,7.7463 28.575,7.9983 28.575,8.3093 L28.575,38.5273 C28.575,38.8383 28.323,39.0903 28.013,39.0903 L28.013,39.0903 Z" id="Fill-7" fill="#FFFFFF" mask="url(#mask-4)"></path>
                            <polygon id="Fill-8" fill="#FFFFFF" mask="url(#mask-4)" points="9.367 14.1873 24.977 14.1873 24.977 13.8123 9.367 13.8123"></polygon>
                            <path d="M21.7271,3.1575 L18.4981,3.1575 C18.4981,1.7245 17.3361,0.5625 15.9021,0.5625 C14.4691,0.5625 13.3071,1.7245 13.3071,3.1575 L10.0781,3.1575 C9.5681,3.1575 9.1551,3.5705 9.1551,4.0805 L9.1551,9.7025 L22.6501,9.7025 L22.6501,4.0805 C22.6501,3.5705 22.2371,3.1575 21.7271,3.1575" id="Fill-9" fill="#33C6D9" mask="url(#mask-4)"></path>
                            <path d="M9.7178,9.1403 L22.0878,9.1403 L22.0878,4.0803 C22.0878,3.8813 21.9258,3.7203 21.7268,3.7203 L18.4978,3.7203 C18.1868,3.7203 17.9348,3.4683 17.9348,3.1573 C17.9348,2.0373 17.0238,1.1253 15.9028,1.1253 C14.7818,1.1253 13.8698,2.0373 13.8698,3.1573 C13.8698,3.4683 13.6178,3.7203 13.3078,3.7203 L10.0778,3.7203 C9.8788,3.7203 9.7178,3.8813 9.7178,4.0803 L9.7178,9.1403 Z M22.6498,10.2653 L9.1558,10.2653 C8.8448,10.2653 8.5928,10.0133 8.5928,9.7023 L8.5928,4.0803 C8.5928,3.2613 9.2598,2.5953 10.0778,2.5953 L12.7948,2.5953 C13.0608,1.1213 14.3528,0.0003 15.9028,0.0003 C17.4518,0.0003 18.7438,1.1213 19.0098,2.5953 L21.7268,2.5953 C22.5458,2.5953 23.2128,3.2613 23.2128,4.0803 L23.2128,9.7023 C23.2128,10.0133 22.9608,10.2653 22.6498,10.2653 L22.6498,10.2653 Z" id="Fill-10" fill="#FFFFFF" mask="url(#mask-4)"></path>
                            <path d="M15.9023,2.3577 C15.4613,2.3577 15.1023,2.7167 15.1023,3.1577 C15.1023,3.5987 15.4613,3.9577 15.9023,3.9577 C16.3433,3.9577 16.7023,3.5987 16.7023,3.1577 C16.7023,2.7167 16.3433,2.3577 15.9023,2.3577 M15.9023,4.3327 C15.2543,4.3327 14.7273,3.8057 14.7273,3.1577 C14.7273,2.5097 15.2543,1.9827 15.9023,1.9827 C16.5503,1.9827 17.0773,2.5097 17.0773,3.1577 C17.0773,3.8057 16.5503,4.3327 15.9023,4.3327" id="Fill-11" fill="#FFFFFF" mask="url(#mask-4)"></path>
                            <polygon id="Fill-12" fill="#FFFFFF" mask="url(#mask-4)" points="9.155 8.4163 22.65 8.4163 22.65 8.0413 9.155 8.0413"></polygon>
                            <path d="M7.3517,13.4374 C7.0417,13.4374 6.7897,13.6894 6.7897,13.9994 C6.7897,14.3104 7.0417,14.5624 7.3517,14.5624 C7.6617,14.5624 7.9137,14.3104 7.9137,13.9994 C7.9137,13.6894 7.6617,13.4374 7.3517,13.4374 M7.3517,14.9374 C6.8347,14.9374 6.4147,14.5174 6.4147,13.9994 C6.4147,13.4824 6.8347,13.0624 7.3517,13.0624 C7.8687,13.0624 8.2887,13.4824 8.2887,13.9994 C8.2887,14.5174 7.8687,14.9374 7.3517,14.9374" id="Fill-13" fill="#FFFFFF" mask="url(#mask-4)"></path>
                            <polygon id="Fill-14" fill="#FFFFFF" mask="url(#mask-4)" points="9.367 18.6873 24.977 18.6873 24.977 18.3123 9.367 18.3123"></polygon>
                            <path d="M7.3517,17.9374 C7.0417,17.9374 6.7897,18.1894 6.7897,18.4994 C6.7897,18.8104 7.0417,19.0624 7.3517,19.0624 C7.6617,19.0624 7.9137,18.8104 7.9137,18.4994 C7.9137,18.1894 7.6617,17.9374 7.3517,17.9374 M7.3517,19.4374 C6.8347,19.4374 6.4147,19.0174 6.4147,18.4994 C6.4147,17.9824 6.8347,17.5624 7.3517,17.5624 C7.8687,17.5624 8.2887,17.9824 8.2887,18.4994 C8.2887,19.0174 7.8687,19.4374 7.3517,19.4374" id="Fill-15" fill="#FFFFFF" mask="url(#mask-4)"></path>
                            <polygon id="Fill-16" fill="#FFFFFF" mask="url(#mask-4)" points="9.367 23.1873 24.977 23.1873 24.977 22.8123 9.367 22.8123"></polygon>
                            <path d="M7.3517,22.4374 C7.0417,22.4374 6.7897,22.6894 6.7897,22.9994 C6.7897,23.3104 7.0417,23.5624 7.3517,23.5624 C7.6617,23.5624 7.9137,23.3104 7.9137,22.9994 C7.9137,22.6894 7.6617,22.4374 7.3517,22.4374 M7.3517,23.9374 C6.8347,23.9374 6.4147,23.5174 6.4147,22.9994 C6.4147,22.4824 6.8347,22.0624 7.3517,22.0624 C7.8687,22.0624 8.2887,22.4824 8.2887,22.9994 C8.2887,23.5174 7.8687,23.9374 7.3517,23.9374" id="Fill-17" fill="#FFFFFF" mask="url(#mask-4)"></path>
                            <polygon id="Fill-18" fill="#FFFFFF" mask="url(#mask-4)" points="9.367 27.6873 24.977 27.6873 24.977 27.3123 9.367 27.3123"></polygon>
                            <path d="M7.3517,26.9374 C7.0417,26.9374 6.7897,27.1894 6.7897,27.4994 C6.7897,27.8104 7.0417,28.0624 7.3517,28.0624 C7.6617,28.0624 7.9137,27.8104 7.9137,27.4994 C7.9137,27.1894 7.6617,26.9374 7.3517,26.9374 M7.3517,28.4374 C6.8347,28.4374 6.4147,28.0174 6.4147,27.4994 C6.4147,26.9824 6.8347,26.5624 7.3517,26.5624 C7.8687,26.5624 8.2887,26.9824 8.2887,27.4994 C8.2887,28.0174 7.8687,28.4374 7.3517,28.4374" id="Fill-19" fill="#FFFFFF" mask="url(#mask-4)"></path>
                            <polygon id="Fill-20" fill="#FFFFFF" mask="url(#mask-4)" points="9.367 32.1873 24.977 32.1873 24.977 31.8123 9.367 31.8123"></polygon>
                            <path d="M7.3517,31.4374 C7.0417,31.4374 6.7897,31.6894 6.7897,31.9994 C6.7897,32.3104 7.0417,32.5624 7.3517,32.5624 C7.6617,32.5624 7.9137,32.3104 7.9137,31.9994 C7.9137,31.6894 7.6617,31.4374 7.3517,31.4374 M7.3517,32.9374 C6.8347,32.9374 6.4147,32.5174 6.4147,31.9994 C6.4147,31.4824 6.8347,31.0624 7.3517,31.0624 C7.8687,31.0624 8.2887,31.4824 8.2887,31.9994 C8.2887,32.5174 7.8687,32.9374 7.3517,32.9374" id="Fill-21" fill="#FFFFFF" mask="url(#mask-4)"></path>
                        </g>
                    </g>
                </g>
            </g>
        </g>
    </g>
</svg>