<?xml version="1.0" encoding="UTF-8" standalone="no"?>
<svg width="37px" height="41px" viewBox="0 0 37 41" version="1.1" xmlns="http://www.w3.org/2000/svg" xmlns:xlink="http://www.w3.org/1999/xlink">
    <!-- Generator: sketchtool 40 (33762) - http://www.bohemiancoding.com/sketch -->
    <title>F5A2ADD9-E689-465F-AD84-A079FA53C0C1</title>
    <desc>Created with sketchtool.</desc>
    <defs>
        <polygon id="path-1" points="17.922 34.9995 17.922 0.117741572 0.5713 0.117741572 0.5713 34.9995 17.922 34.9995"></polygon>
        <polygon id="path-3" points="36.9216 0.268 0 0.268 0 16.3513 36.9216 16.3513 36.9216 0.268"></polygon>
    </defs>
    <g id="Main-Screens" stroke="none" stroke-width="1" fill="none" fill-rule="evenodd">
        <g id="Locations" transform="translate(-17.000000, -435.000000)">
            <g id="Group-2">
                <g id="icon_nav_locations" transform="translate(17.000000, 434.000000)">
                    <path d="M1,29.9101 L19.571,40.3771 L19.571,16.8771 L1,6.4101 L1,29.9101 Z M20.071,41.7321 C19.986,41.7321 19.902,41.7111 19.826,41.6681 L0.255,30.6381 C0.098,30.5491 0,30.3831 0,30.2021 L0,5.5551 C0,5.3771 0.095,5.2131 0.248,5.1231 C0.4,5.0321 0.591,5.0321 0.745,5.1191 L20.316,16.1491 C20.474,16.2381 20.571,16.4041 20.571,16.5851 L20.571,41.2321 C20.571,41.4101 20.477,41.5741 20.323,41.6641 C20.246,41.7101 20.158,41.7321 20.071,41.7321 L20.071,41.7321 Z" id="Fill-1" fill="#FFFFFF"></path>
                    <path d="M12.9189,21.4345 L15.3559,22.8075 L15.3559,19.6955 L12.9189,18.3225 L12.9189,21.4345 Z M15.7499,23.4835 L12.5239,21.6645 L12.5239,17.6485 L15.7499,19.4645 L15.7499,23.4835 Z" id="Fill-3" fill="#FFFFFF"></path>
                    <path d="M10.0889,19.8398 L12.5249,21.2118 L12.5249,18.1008 L10.0889,16.7278 L10.0889,19.8398 Z M12.9189,21.8878 L9.6939,20.0698 L9.6939,16.0518 L12.9189,17.8698 L12.9189,21.8878 Z" id="Fill-5" fill="#FFFFFF"></path>
                    <path d="M7.2588,18.2441 L9.6948,19.6171 L9.6948,16.5051 L7.2588,15.1331 L7.2588,18.2441 Z M10.0888,20.2931 L6.8638,18.4741 L6.8638,14.4571 L10.0888,16.2741 L10.0888,20.2931 Z" id="Fill-7" fill="#FFFFFF"></path>
                    <path d="M4.4277,16.6494 L6.8647,18.0224 L6.8647,14.9104 L4.4277,13.5374 L4.4277,16.6494 Z M7.2587,18.6964 L4.0327,16.8794 L4.0327,12.8634 L7.2587,14.6794 L7.2587,18.6964 Z" id="Fill-9" fill="#FFFFFF"></path>
                    <path d="M12.9189,24.999 L15.3559,26.372 L15.3559,23.261 L12.9189,21.888 L12.9189,24.999 Z M15.7499,27.048 L12.5239,25.229 L12.5239,21.212 L15.7499,23.03 L15.7499,27.048 Z" id="Fill-11" fill="#FFFFFF"></path>
                    <path d="M10.0889,23.4043 L12.5249,24.7763 L12.5249,21.6653 L10.0889,20.2933 L10.0889,23.4043 Z M12.9189,25.4523 L9.6939,23.6343 L9.6939,19.6173 L12.9189,21.4343 L12.9189,25.4523 Z" id="Fill-13" fill="#FFFFFF"></path>
                    <path d="M7.2588,21.8086 L9.6948,23.1816 L9.6948,20.0706 L7.2588,18.6976 L7.2588,21.8086 Z M10.0888,23.8576 L6.8638,22.0386 L6.8638,18.0216 L10.0888,19.8396 L10.0888,23.8576 Z" id="Fill-15" fill="#FFFFFF"></path>
                    <path d="M4.4277,20.2138 L6.8647,21.5868 L6.8647,18.4748 L4.4277,17.1018 L4.4277,20.2138 Z M7.2587,22.2608 L4.0327,20.4438 L4.0327,16.4278 L7.2587,18.2438 L7.2587,22.2608 Z" id="Fill-17" fill="#FFFFFF"></path>
                    <path d="M12.9189,28.5635 L15.3559,29.9365 L15.3559,26.8255 L12.9189,25.4525 L12.9189,28.5635 Z M15.7499,30.6125 L12.5239,28.7935 L12.5239,24.7765 L15.7499,26.5945 L15.7499,30.6125 Z" id="Fill-19" fill="#FFFFFF"></path>
                    <path d="M10.0889,26.9687 L12.5249,28.3407 L12.5249,25.2297 L10.0889,23.8577 L10.0889,26.9687 Z M12.9189,29.0167 L9.6939,27.1987 L9.6939,23.1817 L12.9189,24.9987 L12.9189,29.0167 Z" id="Fill-21" fill="#FFFFFF"></path>
                    <path d="M7.2588,25.373 L9.6948,26.746 L9.6948,23.635 L7.2588,22.262 L7.2588,25.373 Z M10.0888,27.422 L6.8638,25.603 L6.8638,21.586 L10.0888,23.404 L10.0888,27.422 Z" id="Fill-23" fill="#FFFFFF"></path>
                    <path d="M4.4277,23.7783 L6.8647,25.1513 L6.8647,22.0393 L4.4277,20.6663 L4.4277,23.7783 Z M7.2587,25.8253 L4.0327,24.0083 L4.0327,19.9923 L7.2587,21.8083 L7.2587,25.8253 Z" id="Fill-25" fill="#FFFFFF"></path>
                    <polygon id="Fill-27" fill="#18A6B9" points="36.4218 31.9981 20.0708 41.2321 20.0708 16.5841 36.4218 7.3501"></polygon>
                    <g id="Group-31" transform="translate(19.000000, 6.732400)">
                        <mask id="mask-2" fill="white">
                            <use xlink:href="#path-1"></use>
                        </mask>
                        <g id="Clip-30"></g>
                        <path d="M1.5713,10.1445 L1.5713,33.6435 L16.9223,24.9735 L16.9223,1.4745 L1.5713,10.1445 Z M1.0713,34.9995 C0.9843,34.9995 0.8973,34.9775 0.8193,34.9315 C0.6663,34.8415 0.5713,34.6775 0.5713,34.4995 L0.5713,9.8525 C0.5713,9.6715 0.6683,9.5055 0.8253,9.4165 L17.1753,0.1825 C17.3303,0.0955 17.5193,0.0955 17.6743,0.1865 C17.8273,0.2765 17.9223,0.4405 17.9223,0.6185 L17.9223,25.2655 C17.9223,25.4465 17.8253,25.6125 17.6683,25.7015 L1.3173,34.9355 C1.2413,34.9785 1.1563,34.9995 1.0713,34.9995 L1.0713,34.9995 Z" id="Fill-29" fill="#FFFFFF" mask="url(#mask-2)"></path>
                    </g>
                    <path d="M23.6377,19.5859 L23.6377,22.5819 L25.7927,21.3639 L25.7927,18.3689 L23.6377,19.5859 Z M23.2427,23.2579 L23.2427,19.3559 L26.1877,17.6929 L26.1877,21.5949 L23.2427,23.2579 Z" id="Fill-32" fill="#FFFFFF"></path>
                    <path d="M26.1875,18.1465 L26.1875,21.1415 L28.3415,19.9245 L28.3415,16.9285 L26.1875,18.1465 Z M25.7925,21.8175 L25.7925,17.9165 L28.7365,16.2525 L28.7365,20.1555 L25.7925,21.8175 Z" id="Fill-34" fill="#FFFFFF"></path>
                    <path d="M28.7363,16.706 L28.7363,19.702 L30.8913,18.484 L30.8913,15.489 L28.7363,16.706 Z M28.3413,20.378 L28.3413,16.476 L31.2863,14.813 L31.2863,18.715 L28.3413,20.378 Z" id="Fill-36" fill="#FFFFFF"></path>
                    <path d="M31.2861,15.2666 L31.2861,18.2616 L33.4411,17.0446 L33.4411,14.0486 L31.2861,15.2666 Z M30.8911,18.9376 L30.8911,15.0366 L33.8361,13.3726 L33.8361,17.2756 L30.8911,18.9376 Z" id="Fill-38" fill="#FFFFFF"></path>
                    <path d="M23.6377,23.0351 L23.6377,26.0301 L25.7927,24.8131 L25.7927,21.8171 L23.6377,23.0351 Z M23.2427,26.7061 L23.2427,22.8051 L26.1877,21.1411 L26.1877,25.0441 L23.2427,26.7061 Z" id="Fill-40" fill="#FFFFFF"></path>
                    <path d="M26.1875,21.5947 L26.1875,24.5907 L28.3415,23.3727 L28.3415,20.3777 L26.1875,21.5947 Z M25.7925,25.2667 L25.7925,21.3647 L28.7365,19.7017 L28.7365,23.6037 L25.7925,25.2667 Z" id="Fill-42" fill="#FFFFFF"></path>
                    <path d="M28.7363,20.1553 L28.7363,23.1503 L30.8913,21.9333 L30.8913,18.9373 L28.7363,20.1553 Z M28.3413,23.8263 L28.3413,19.9253 L31.2863,18.2613 L31.2863,22.1643 L28.3413,23.8263 Z" id="Fill-44" fill="#FFFFFF"></path>
                    <path d="M31.2861,18.7148 L31.2861,21.7108 L33.4411,20.4938 L33.4411,17.4978 L31.2861,18.7148 Z M30.8911,22.3868 L30.8911,18.4848 L33.8361,16.8218 L33.8361,20.7248 L30.8911,22.3868 Z" id="Fill-46" fill="#FFFFFF"></path>
                    <path d="M28.7363,23.6035 L28.7363,26.5995 L30.8913,25.3825 L30.8913,22.3865 L28.7363,23.6035 Z M28.3413,27.2755 L28.3413,23.3735 L31.2863,21.7105 L31.2863,25.6135 L28.3413,27.2755 Z" id="Fill-48" fill="#FFFFFF"></path>
                    <path d="M31.2861,22.164 L31.2861,25.16 L33.4411,23.942 L33.4411,20.947 L31.2861,22.164 Z M30.8911,25.836 L30.8911,21.934 L33.8361,20.271 L33.8361,24.173 L30.8911,25.836 Z" id="Fill-50" fill="#FFFFFF"></path>
                    <path d="M23.7686,32.6357 L23.7686,38.8217 L26.3686,37.3537 L26.3686,31.1677 L23.7686,32.6357 Z M23.3736,39.4967 L23.3736,32.4057 L26.7626,30.4917 L26.7626,37.5837 L23.3736,39.4967 Z" id="Fill-52" fill="#FFFFFF"></path>
                    <g id="Group-56" transform="translate(0.000000, 0.732400)">
                        <mask id="mask-4" fill="white">
                            <use xlink:href="#path-3"></use>
                        </mask>
                        <g id="Clip-55"></g>
                        <path d="M1.5176,4.8223 L20.0716,15.2773 L35.4046,6.6173 L26.0416,1.3423 L17.0316,6.4303 C16.8786,6.5163 16.6926,6.5163 16.5396,6.4303 L7.5946,1.3893 L1.5176,4.8223 Z M20.0716,16.3513 C19.9866,16.3513 19.9026,16.3303 19.8266,16.2873 L0.2546,5.2583 C0.0976,5.1693 -0.0004,5.0033 -0.0004,4.8223 C-0.0004,4.6423 0.0966,4.4753 0.2536,4.3863 L7.3486,0.3803 C7.5006,0.2943 7.6876,0.2943 7.8396,0.3803 L16.7856,5.4213 L25.7956,0.3323 C25.9486,0.2463 26.1346,0.2463 26.2876,0.3323 L36.6666,6.1813 C36.8246,6.2703 36.9216,6.4363 36.9216,6.6173 C36.9216,6.7983 36.8256,6.9643 36.6676,7.0523 L20.3176,16.2873 C20.2416,16.3303 20.1566,16.3513 20.0716,16.3513 L20.0716,16.3513 Z" id="Fill-54" fill="#FFFFFF" mask="url(#mask-4)"></path>
                    </g>
                    <polygon id="Fill-57" fill="#56BFB5" points="11.1937 9.3402 8.2447 7.6782 8.2447 3.9642 11.1937 5.6262"></polygon>
                    <path d="M8.4414,7.5625 L10.9964,9.0015 L10.9964,5.7415 L8.4414,4.3015 L8.4414,7.5625 Z M11.1934,9.5375 C11.1604,9.5375 11.1274,9.5285 11.0964,9.5115 L8.1474,7.8495 C8.0854,7.8145 8.0464,7.7495 8.0464,7.6775 L8.0464,3.9635 C8.0464,3.8935 8.0844,3.8295 8.1444,3.7935 C8.2064,3.7575 8.2794,3.7585 8.3404,3.7915 L11.2904,5.4545 C11.3524,5.4895 11.3904,5.5545 11.3904,5.6255 L11.3904,9.3395 C11.3904,9.4105 11.3534,9.4745 11.2934,9.5095 C11.2614,9.5285 11.2274,9.5375 11.1934,9.5375 L11.1934,9.5375 Z" id="Fill-59" fill="#FFFFFF"></path>
                    <polygon id="Fill-61" fill="#198F90" points="13.6576 7.9487 11.1936 9.3407 11.1936 5.6257 13.6576 4.2347"></polygon>
                    <path d="M11.3906,5.7412 L11.3906,9.0022 L13.4596,7.8332 L13.4596,4.5722 L11.3906,5.7412 Z M11.1936,9.5372 C11.1596,9.5372 11.1246,9.5282 11.0936,9.5102 C11.0336,9.4742 10.9956,9.4102 10.9956,9.3402 L10.9956,5.6262 C10.9956,5.5542 11.0346,5.4892 11.0966,5.4542 L13.5606,4.0622 C13.6216,4.0292 13.6956,4.0282 13.7566,4.0642 C13.8176,4.0992 13.8546,4.1642 13.8546,4.2342 L13.8546,7.9482 C13.8546,8.0192 13.8166,8.0852 13.7536,8.1202 L11.2896,9.5122 C11.2596,9.5282 11.2266,9.5372 11.1936,9.5372 L11.1936,9.5372 Z" id="Fill-63" fill="#FFFFFF"></path>
                    <polygon id="Fill-65" fill="#56BFB5" points="10.7151 2.5624 8.2441 3.9634 11.1941 5.6264 13.6581 4.2344"></polygon>
                    <path d="M8.6445,3.9629 L11.1935,5.3999 L13.2565,4.2339 L10.7145,2.7889 L8.6445,3.9629 Z M11.1935,5.8229 C11.1605,5.8229 11.1265,5.8149 11.0965,5.7979 L8.1475,4.1359 C8.0845,4.1009 8.0465,4.0349 8.0465,3.9639 C8.0465,3.8929 8.0845,3.8269 8.1465,3.7919 L10.6175,2.3909 C10.6775,2.3579 10.7515,2.3579 10.8125,2.3909 L13.7545,4.0629 C13.8165,4.0979 13.8545,4.1639 13.8545,4.2339 C13.8545,4.3059 13.8165,4.3709 13.7535,4.4059 L11.2905,5.7979 C11.2595,5.8149 11.2265,5.8229 11.1935,5.8229 L11.1935,5.8229 Z" id="Fill-67" fill="#FFFFFF"></path>
                </g>
            </g>
        </g>
    </g>
</svg>