<?xml version="1.0" encoding="UTF-8" standalone="no"?>
<svg width="20px" height="20px" viewBox="0 0 20 20" version="1.1" xmlns="http://www.w3.org/2000/svg" xmlns:xlink="http://www.w3.org/1999/xlink">
    <!-- Generator: sketchtool 40.3 (33839) - http://www.bohemiancoding.com/sketch -->
    <title>BDC65A8E-1BE4-477B-8781-990085D2FEF2</title>
    <desc>Created with sketchtool.</desc>
    <defs></defs>
    <g id="Main-Screens" stroke="none" stroke-width="1" fill="none" fill-rule="evenodd">
        <g id="Shopping-List" transform="translate(-1134.000000, -156.000000)">
            <g id="icon_info" transform="translate(1135.000000, 157.000000)">
                <circle id="Oval-2" stroke="#FFFFFF" cx="9" cy="9" r="9"></circle>
                <path d="M6.5,5.03944211 C6.64917994,4.89988668 6.81399723,4.76755163 6.99445684,4.64243297 C7.17491644,4.51731431 7.37221597,4.40663408 7.58636137,4.31038896 C7.80050676,4.21414384 8.03149159,4.13835195 8.27932277,4.083011 C8.52715396,4.02767006 8.79543321,4 9.08416857,4 C9.4643368,4 9.81682926,4.05534011 10.1416565,4.166022 C10.4664838,4.27670389 10.7467935,4.43309987 10.9825941,4.63521462 C11.2183946,4.83732937 11.4036637,5.08275075 11.5384069,5.37148611 C11.67315,5.66022148 11.7405206,5.98504389 11.7405206,6.34596309 C11.7405206,6.71169455 11.6863836,7.02689259 11.5781078,7.29156667 C11.469832,7.55624075 11.3326848,7.78842862 11.166662,7.98813725 C11.0006391,8.18784587 10.8189792,8.36108449 10.6216767,8.5078583 C10.4243742,8.65463211 10.2403082,8.7929824 10.0694731,8.92291331 C9.89863798,9.05284422 9.75186637,9.18277319 9.62915384,9.3127041 C9.50644131,9.44263501 9.4354616,9.58700053 9.41621258,9.74580498 L9.28628231,10.8502122 L8.40564386,10.8502122 L8.31902369,9.65196645 L8.31902369,9.57256463 C8.31902369,9.37044987 8.37316075,9.19119603 8.48143652,9.0347977 C8.58971228,8.87839938 8.72685952,8.73162778 8.89288235,8.59447848 C9.05890518,8.45732918 9.23695599,8.32018194 9.4270401,8.18303264 C9.61712421,8.04588335 9.79517501,7.89429956 9.96119785,7.72827672 C10.1272207,7.56225389 10.2643679,7.37337567 10.3726437,7.16163641 C10.4809194,6.94989714 10.5350565,6.69966358 10.5350565,6.41092822 C10.5350565,6.20400121 10.4941529,6.01632604 10.4123446,5.84789708 C10.3305362,5.67946812 10.219856,5.53630565 10.0803006,5.41840537 C9.94074516,5.3005051 9.77592787,5.21027665 9.58584375,5.14771733 C9.39575964,5.085158 9.19244487,5.0538788 8.97589335,5.0538788 C8.68234573,5.0538788 8.43090913,5.08997018 8.22157599,5.16215402 C8.01224285,5.23433786 7.83539509,5.3137389 7.69102741,5.4003595 C7.54665973,5.48698011 7.42996427,5.56638115 7.34093754,5.63856499 C7.2519108,5.71074883 7.178525,5.74684021 7.12077792,5.74684021 C7.00047152,5.74684021 6.90663394,5.69150009 6.83926235,5.5808182 L6.5,5.03944211 Z M7.9147962,13.6653679 C7.9147962,13.5402493 7.93765407,13.4223508 7.98337051,13.3116689 C8.02908694,13.200987 8.09164533,13.1047433 8.17104755,13.022935 C8.25044978,12.9411266 8.34549041,12.8761621 8.4561723,12.8280396 C8.56685419,12.779917 8.68475269,12.7558561 8.80987135,12.7558561 C8.93499,12.7558561 9.05288851,12.779917 9.1635704,12.8280396 C9.27425229,12.8761621 9.37049596,12.9411266 9.45230432,13.022935 C9.53411267,13.1047433 9.59787411,13.200987 9.64359054,13.3116689 C9.68930697,13.4223508 9.71216484,13.5402493 9.71216484,13.6653679 C9.71216484,13.7952988 9.68930697,13.9144004 9.64359054,14.0226761 C9.59787411,14.1309519 9.53411267,14.2259925 9.45230432,14.3078009 C9.37049596,14.3896092 9.27425229,14.4533707 9.1635704,14.4990871 C9.05288851,14.5448035 8.93499,14.5676614 8.80987135,14.5676614 C8.68475269,14.5676614 8.56685419,14.5448035 8.4561723,14.4990871 C8.34549041,14.4533707 8.25044978,14.3896092 8.17104755,14.3078009 C8.09164533,14.2259925 8.02908694,14.1309519 7.98337051,14.0226761 C7.93765407,13.9144004 7.9147962,13.7952988 7.9147962,13.6653679 L7.9147962,13.6653679 Z" id="?" fill="#FFFFFF"></path>
            </g>
        </g>
    </g>
</svg>