<?xml version="1.0" encoding="UTF-8" standalone="no"?>
<svg width="38px" height="47px" viewBox="0 0 38 47" version="1.1" xmlns="http://www.w3.org/2000/svg" xmlns:xlink="http://www.w3.org/1999/xlink">
    <!-- Generator: sketchtool 40 (33762) - http://www.bohemiancoding.com/sketch -->
    <title>17A024EC-F1B3-40F7-97EA-FEC8289F085F</title>
    <desc>Created with sketchtool.</desc>
    <defs>
        <polygon id="path-1" points="0 37 19.125 37 19.125 18.8418816 19.125 0.683763222 0 0.683763222"></polygon>
        <polygon id="path-3" points="37.125 21.9505 37.125 0.5435 0.0004 0.5435 0.0004 21.9505"></polygon>
    </defs>
    <g id="Main-Screens" stroke="none" stroke-width="1" fill="none" fill-rule="evenodd">
        <g id="Locations" transform="translate(-16.000000, -222.000000)">
            <g id="Group-2">
                <g id="icon_nav_inventory" transform="translate(16.000000, 221.000000)">
                    <path d="M1.125,36.4247 L18,45.9317 L18,22.1737 L1.125,12.6657 L1.125,36.4247 Z M18.562,47.4567 C18.467,47.4567 18.372,47.4327 18.286,47.3847 L0.286,37.2437 C0.109,37.1437 0,36.9567 0,36.7537 L0,11.7037 C0,11.5037 0.106,11.3187 0.279,11.2177 C0.451,11.1167 0.665,11.1147 0.839,11.2137 L18.839,21.3547 C19.016,21.4537 19.125,21.6407 19.125,21.8447 L19.125,46.8947 C19.125,47.0947 19.019,47.2787 18.846,47.3797 C18.759,47.4307 18.661,47.4567 18.562,47.4567 L18.562,47.4567 Z" id="Fill-1" fill="#FFFFFF"></path>
                    <path d="M5.8931,31.7735 L13.2321,35.9085 L13.2321,26.8245 L5.8931,22.6895 L5.8931,31.7735 Z M13.6071,36.5495 L5.5181,31.9925 L5.5181,22.0485 L13.6071,26.6055 L13.6071,36.5495 Z" id="Fill-3" fill="#FFFFFF"></path>
                    <polygon id="Fill-5" fill="#FFFFFF" points="11.9788 28.624 6.9628 25.798 7.1468 25.471 12.1628 28.297"></polygon>
                    <polygon id="Fill-7" fill="#FFFFFF" points="11.9788 30.1702 6.9628 27.3442 7.1468 27.0172 12.1628 29.8432"></polygon>
                    <polygon id="Fill-9" fill="#FFFFFF" points="11.9788 31.716 6.9628 28.89 7.1468 28.564 12.1628 31.389"></polygon>
                    <polygon id="Fill-11" fill="#FFFFFF" points="11.9788 33.2621 6.9628 30.4361 7.1468 30.1091 12.1628 32.9351"></polygon>
                    <polygon id="Fill-13" fill="#18A6B9" points="36.5627 36.7534 18.5627 46.8944 18.5627 21.8444 36.5627 11.7034"></polygon>
                    <g id="Group-17" transform="translate(18.000000, 10.456800)">
                        <mask id="mask-2" fill="white">
                            <use xlink:href="#path-1"></use>
                        </mask>
                        <g id="Clip-16"></g>
                        <path d="M1.125,11.7164 L1.125,35.4754 L18,25.9674 L18,2.2084 L1.125,11.7164 Z M0.563,37.0004 C0.464,37.0004 0.366,36.9744 0.279,36.9234 C0.106,36.8224 0,36.6374 0,36.4374 L0,11.3874 C0,11.1844 0.109,10.9974 0.286,10.8974 L18.286,0.7564 C18.46,0.6584 18.674,0.6594 18.846,0.7604 C19.019,0.8614 19.125,1.0464 19.125,1.2464 L19.125,26.2964 C19.125,26.5004 19.016,26.6874 18.839,26.7864 L0.839,36.9274 C0.753,36.9754 0.658,37.0004 0.563,37.0004 L0.563,37.0004 Z" id="Fill-15" fill="#FFFFFF" mask="url(#mask-2)"></path>
                    </g>
                    <g id="Group-20" transform="translate(0.000000, 0.456800)">
                        <mask id="mask-4" fill="white">
                            <use xlink:href="#path-3"></use>
                        </mask>
                        <g id="Clip-19"></g>
                        <path d="M1.7084,11.2465 L18.5624,20.7415 L35.4164,11.2465 L18.5624,1.7515 L1.7084,11.2465 Z M18.5624,21.9505 C18.4674,21.9505 18.3724,21.9255 18.2864,21.8775 L0.2864,11.7365 C0.1094,11.6365 0.0004,11.4495 0.0004,11.2465 C0.0004,11.0435 0.1094,10.8565 0.2864,10.7565 L18.2864,0.6155 C18.4574,0.5195 18.6674,0.5195 18.8384,0.6155 L36.8384,10.7565 C37.0154,10.8565 37.1254,11.0435 37.1254,11.2465 C37.1254,11.4495 37.0154,11.6365 36.8384,11.7365 L18.8384,21.8775 C18.7534,21.9255 18.6574,21.9505 18.5624,21.9505 L18.5624,21.9505 Z" id="Fill-18" fill="#FFFFFF" mask="url(#mask-4)"></path>
                    </g>
                    <polygon id="Fill-21" fill="#FFFFFF" points="27.1707 16.9668 9.1707 6.8258 9.3547 6.4998 27.3547 16.6398"></polygon>
                </g>
            </g>
        </g>
    </g>
</svg>