<?xml version="1.0" encoding="UTF-8"?>
<svg width="45px" height="36px" viewBox="0 0 45 36" version="1.1" xmlns="http://www.w3.org/2000/svg" xmlns:xlink="http://www.w3.org/1999/xlink">
    <!-- Generator: Sketch 46.2 (44496) - http://www.bohemiancoding.com/sketch -->
    <title>Shape</title>
    <desc>Created with Sketch.</desc>
    <defs>
        <path d="M42,26.25 L42,3.75 C42,3.546875 41.9257812,3.37109375 41.7773438,3.22265625 C41.6289062,3.07421875 41.453125,3 41.25,3 L3.75,3 C3.546875,3 3.37109375,3.07421875 3.22265625,3.22265625 C3.07421875,3.37109375 3,3.546875 3,3.75 L3,26.25 C3,26.453125 3.07421875,26.6289062 3.22265625,26.7773438 C3.37109375,26.9257812 3.546875,27 3.75,27 L41.25,27 C41.453125,27 41.6289062,26.9257812 41.7773438,26.7773438 C41.9257812,26.6289062 42,26.453125 42,26.25 Z M45,3.75 L45,26.25 C45,27.28125 44.6328125,28.1640625 43.8984375,28.8984375 C43.1640625,29.6328125 42.28125,30 41.25,30 L24,30 L24,33 L32.25,33 C32.46875,33 32.6484375,33.0703125 32.7890625,33.2109375 C32.9296875,33.3515625 33,33.53125 33,33.75 L33,35.25 C33,35.46875 32.9296875,35.6484375 32.7890625,35.7890625 C32.6484375,35.9296875 32.46875,36 32.25,36 L12.75,36 C12.53125,36 12.3515625,35.9296875 12.2109375,35.7890625 C12.0703125,35.6484375 12,35.46875 12,35.25 L12,33.75 C12,33.53125 12.0703125,33.3515625 12.2109375,33.2109375 C12.3515625,33.0703125 12.53125,33 12.75,33 L21,33 L21,30 L3.75,30 C2.71875,30 1.8359375,29.6328125 1.1015625,28.8984375 C0.3671875,28.1640625 0,27.28125 0,26.25 L0,3.75 C0,2.71875 0.3671875,1.8359375 1.1015625,1.1015625 C1.8359375,0.3671875 2.71875,0 3.75,0 L41.25,0 C42.28125,0 43.1640625,0.3671875 43.8984375,1.1015625 C44.6328125,1.8359375 45,2.71875 45,3.75 Z" id="path-1"></path>
    </defs>
    <g id="Main-Screens" stroke="none" stroke-width="1" fill="none" fill-rule="evenodd">
        <g id="Shopping-List" transform="translate(-14.000000, -773.000000)" fill-rule="nonzero">
            <g id="television" transform="translate(14.000000, 773.000000)">
                <g id="Shape">
                    <use fill="#18A6B9" fill-rule="evenodd" xlink:href="#path-1"></use>
                    <path stroke="#FFFFFF" stroke-width="1" d="M42.5,26.25 C42.5,26.5869792 42.3722505,26.8895438 42.1308971,27.1308971 C41.8895438,27.3722505 41.5869792,27.5 41.25,27.5 L3.75,27.5 C3.4130208,27.5 3.11045624,27.3722505 2.86910286,27.1308971 C2.62774948,26.8895438 2.5,26.5869792 2.5,26.25 L2.5,3.75 C2.5,3.4130208 2.62774948,3.11045624 2.86910286,2.86910286 C3.11045624,2.62774948 3.4130208,2.5 3.75,2.5 L41.25,2.5 C41.5869792,2.5 41.8895438,2.62774948 42.1308971,2.86910286 C42.3722505,3.11045624 42.5,3.4130208 42.5,3.75 L42.5,26.25 Z M44.5,3.75 C44.5,2.8516224 44.1856764,2.09590816 43.5448841,1.45511589 C42.9040918,0.81432362 42.1483776,0.5 41.25,0.5 L3.75,0.5 C2.8516224,0.5 2.09590816,0.81432362 1.45511589,1.45511589 C0.81432362,2.09590816 0.5,2.8516224 0.5,3.75 L0.5,26.25 C0.5,27.1483776 0.81432362,27.9040918 1.45511589,28.5448841 C2.09590816,29.1856764 2.8516224,29.5 3.75,29.5 L21.5,29.5 L21.5,33.5 L12.75,33.5 C12.6604908,33.5 12.608726,33.5202558 12.5644909,33.5644909 C12.5202558,33.608726 12.5,33.6604908 12.5,33.75 L12.5,35.25 C12.5,35.3395092 12.5202558,35.391274 12.5644909,35.4355091 C12.608726,35.4797442 12.6604908,35.5 12.75,35.5 L32.25,35.5 C32.3395092,35.5 32.391274,35.4797442 32.4355091,35.4355091 C32.4797442,35.391274 32.5,35.3395092 32.5,35.25 L32.5,33.75 C32.5,33.6604908 32.4797442,33.608726 32.4355091,33.5644909 C32.391274,33.5202558 32.3395092,33.5 32.25,33.5 L23.5,33.5 L23.5,29.5 L41.25,29.5 C42.1483776,29.5 42.9040918,29.1856764 43.5448841,28.5448841 C44.1856764,27.9040918 44.5,27.1483776 44.5,26.25 L44.5,3.75 Z"></path>
                </g>
            </g>
        </g>
    </g>
</svg>