<?xml version="1.0" encoding="UTF-8" standalone="no"?>
<svg width="26px" height="46px" viewBox="0 0 26 46" version="1.1" xmlns="http://www.w3.org/2000/svg" xmlns:xlink="http://www.w3.org/1999/xlink">
    <!-- Generator: sketchtool 40 (33762) - http://www.bohemiancoding.com/sketch -->
    <title>D2C58DFF-E3B0-4F0C-B628-FDA51FECF980</title>
    <desc>Created with sketchtool.</desc>
    <defs>
        <polygon id="path-1" points="5.49208388e-05 44.3579018 25.897016 44.3579018 25.897016 0 5.49208388e-05 0"></polygon>
    </defs>
    <g id="Main-Screens" stroke="none" stroke-width="1" fill="none" fill-rule="evenodd">
        <g id="Locations" transform="translate(-21.000000, -11.000000)">
            <g id="Group-2">
                <g id="icon_nav_uptracker" transform="translate(33.990365, 34.195212) scale(-1, 1) translate(-33.990365, -34.195212) translate(20.990365, 11.695212)">
                    <mask id="mask-2" fill="white">
                        <use xlink:href="#path-1"></use>
                    </mask>
                    <g id="Clip-2"></g>
                    <path d="M11.4589945,17.0255153 C11.5170908,16.8770521 11.5516083,16.7165845 11.5516083,16.5470523 C11.5516083,15.8255606 10.9711316,15.2405275 10.2552589,15.2405275 C10.0872901,15.2405275 9.92782918,15.2753159 9.78052227,15.3338682 C9.97012522,14.8495255 10.436354,14.5055614 10.984501,14.5055614 C11.7003737,14.5055614 12.2808504,15.0905944 12.2808504,15.8120862 C12.2808504,16.3645357 11.9395651,16.8344241 11.4589945,17.0255153 M22.496317,41.912449 L22.4389499,41.956057 C24.044498,40.3964588 25.0450181,38.2082196 25.0450181,35.7833213 C25.0450181,33.944926 24.4708615,32.2412744 23.493434,30.8453287 C22.5262159,31.4869542 21.3679363,31.860562 20.1233631,31.860562 C17.1964284,31.860562 14.7481195,29.7957971 14.1338546,27.0328143 C15.1516335,29.080185 17.25258,30.4856853 19.6792547,30.4856853 C23.1025602,30.4856853 25.8778126,27.6886491 25.8778126,24.238473 C25.8778126,22.567405 25.2268425,21.0494549 24.1662814,19.9283866 C22.2218789,17.8744012 19.6063305,16.4711058 16.674291,16.076184 C16.2552199,14.10084 14.6508873,12.5581461 12.6634594,12.212957 C9.87240678,11.6798615 7.34922907,9.194206 7.34922907,6.41505402 C7.34412438,3.19957712 8.57970359,2.54619222 9.62981224,2.55109199 C10.6629052,2.55599177 11.2971028,3.70082404 11.1026382,4.53550059 L13.1313898,5.20456477 C13.4928508,3.65427618 13.1238543,0.861649811 9.88990859,0.0960600754 C7.81934715,-0.393917356 3.76937955,0.912362476 2.63006029,5.80160227 C2.11302763,8.0197301 1.84320805,10.7731583 2.46355001,13.8859849 C2.46355001,13.8859849 2.68937198,15.6589682 4.2966216,17.2844684 C3.25550694,17.0708382 2.31235381,16.5495022 1.57314539,15.8108612 C1.46254367,16.4201482 1.40153041,17.0470743 1.40153041,17.6889447 C1.40153041,19.3183647 1.77441621,20.8598337 2.43875578,22.2317705 C3.18695818,24.1456223 3.59825073,26.2307213 3.59825073,28.4123458 L3.4701472,32.3867977 C3.4701472,32.3867977 6.90366214,32.8461516 8.14945075,35.2654151 C8.14945075,35.2654151 4.44247002,32.7849044 3.01874634,34.356752 C2.68985814,34.7200703 1.75083738,39.9439646 1.75083738,39.9439646 C1.62662315,40.761002 1.1686591,41.9570369 0.622213677,42.4908673 C0.303048713,42.8250319 0.0796575466,43.258172 0.00478868986,43.7513343 C-0.028999528,43.9725591 0.121710508,44.1793295 0.341212384,44.213383 L7.6637755,44.213383 C7.81545786,44.2369019 7.95741699,44.1318017 7.98050966,43.9791738 L8.12344111,40.6857905 C8.12344111,40.6857905 8.44746769,42.2782171 11.6267202,43.497036 C13.1600733,44.0541403 14.8132652,44.3579263 16.5371935,44.3579263 C18.0953408,44.3579263 19.5545543,43.9336059 20.8105523,43.1966798 L20.6129277,43.3471029 C21.4260326,43.6773477 22.3144926,43.8588843 23.2450055,43.8588843 C24.183054,43.8588843 25.0783202,43.6741628 25.897016,43.3390183 C24.6261901,43.1731609 23.4615904,42.6662792 22.496317,41.912449" id="Fill-1" fill="#FFFFFF" mask="url(#mask-2)"></path>
                </g>
            </g>
        </g>
    </g>
</svg>