<?xml version="1.0" encoding="UTF-8" standalone="no"?>
<svg width="44px" height="33px" viewBox="0 0 44 33" version="1.1" xmlns="http://www.w3.org/2000/svg" xmlns:xlink="http://www.w3.org/1999/xlink">
    <!-- Generator: sketchtool 41.2 (35397) - http://www.bohemiancoding.com/sketch -->
    <title>00F2B833-ED7D-4AE9-882E-45A216AF3365</title>
    <desc>Created with sketchtool.</desc>
    <defs>
        <polygon id="path-1" points="43.4748085 32.05686 43.4748085 0.925602857 -9.36170213e-05 0.925602857 -9.36170213e-05 32.05686 43.4748085 32.0571429 1.48446658e-14 32.05686"></polygon>
        <polygon id="path-3" points="0 32.0747743 43.4748085 32.0747743 43.4748085 0.942574286 0 0.942574286"></polygon>
    </defs>
    <g id="Main-Screens" stroke="none" stroke-width="1" fill="none" fill-rule="evenodd">
        <g id="frame-blue-open" transform="translate(-13.000000, -90.000000)">
            <g id="icon_nav_dashboard" transform="translate(13.000000, 90.000000)">
                <path d="M21.7374979,4.11198857 C33.0014979,4.11198857 42.2087319,12.9682457 42.8771574,24.1439314 C42.9033702,23.71116 42.9202213,23.27556 42.9202213,22.8361886 C42.9202213,11.0533029 33.4358809,1.50216 21.7374979,1.50216 C10.0391149,1.50216 0.554774468,11.0533029 0.554774468,22.8361886 C0.554774468,23.27556 0.571625532,23.71116 0.597838298,24.1439314 C1.2672,12.9682457 10.4734979,4.11198857 21.7374979,4.11198857 Z" id="Fill-1" fill="#18A6B9"></path>
                <g id="Group-5" transform="translate(0.000000, 0.017631)">
                    <mask id="mask-2" fill="white">
                        <use xlink:href="#path-1"></use>
                    </mask>
                    <g id="Clip-4"></g>
                    <path d="M2.75224681,30.9386314 L40.7233106,30.9386314 C41.8130128,28.3618029 42.364417,25.6322314 42.364417,22.8187457 C42.364417,11.3630314 33.1113106,2.04383143 21.7377787,2.04383143 C10.3642468,2.04383143 1.11020426,11.3630314 1.11020426,22.8187457 C1.11020426,25.6322314 1.66254468,28.3618029 2.75224681,30.9386314 M41.0865447,32.05686 L2.38901277,32.05686 C2.16994894,32.05686 1.97054468,31.9267457 1.88160851,31.7259171 C0.632757447,28.9077171 -9.36170213e-05,25.9103743 -9.36170213e-05,22.8187457 C-9.36170213e-05,10.7464029 9.75199149,0.925602857 21.7377787,0.925602857 C33.723566,0.925602857 43.4756511,10.7464029 43.4756511,22.8187457 C43.4756511,25.9103743 42.8418638,28.9077171 41.5939489,31.7259171 C41.5050128,31.9267457 41.3056085,32.05686 41.0865447,32.05686" id="Fill-3" fill="#FFFFFF" mask="url(#mask-2)"></path>
                </g>
                <path d="M35.6565702,10.0635857 C35.5142723,9.92215714 35.2849106,9.92404286 35.1435489,10.0673571 L23.4461021,20.5811571 C23.0697617,20.4359571 22.6634638,20.3529857 22.2365702,20.3529857 C20.3679745,20.3529857 18.8532511,21.8775857 18.8532511,23.7595286 C18.8532511,24.0537 18.8944426,24.3375 18.9637191,24.6099857 L17.4948681,25.9299857 C16.7646553,26.6757857 16.774017,27.8760429 17.5145277,28.6114714 C18.2550383,29.3459571 19.446783,29.3365286 20.1760596,28.5907286 L21.4782723,27.0774429 C21.7216766,27.1340143 21.9753787,27.1660714 22.2365702,27.1660714 C24.1042298,27.1660714 25.6189532,25.6414714 25.6189532,23.7595286 C25.6189532,23.3248714 25.535634,22.9109571 25.3877191,22.5291 L35.6603149,10.5793286 C35.8007404,10.4360143 35.7988681,10.2050143 35.6565702,10.0635857" id="Fill-6" fill="#18A6B9"></path>
                <path d="M34.4036,8.57594571 C34.5440255,8.43263143 34.7733872,8.43074571 34.9166213,8.57217429 C35.0589191,8.71360286 35.0607915,8.94460286 34.920366,9.08791714 L19.4361106,27.0993171 C18.706834,27.8451171 17.5150894,27.8545457 16.7745787,27.12006 C16.0340681,26.3846314 16.0247064,25.1843743 16.753983,24.4385743 L34.4036,8.57594571 Z" id="Fill-8" fill="#33C6D9"></path>
                <path d="M32.5538213,10.9865486 L17.1238638,24.8559771 C16.9010553,25.0860343 16.7653106,25.4226343 16.7681191,25.7790343 C16.7709277,26.1363771 16.9113532,26.4710914 17.1641191,26.7218914 C17.6696511,27.2225486 18.5430979,27.2159486 19.0411404,26.7068057 L32.5538213,10.9865486 Z M18.0946723,28.2238629 C17.4505872,28.2238629 16.8430128,27.9740057 16.3842894,27.5176629 C15.4265872,26.5682057 15.4153532,25.0106057 16.3590128,24.0460629 L34.0339064,8.15892 C34.1818213,8.00523429 34.4139915,7.90812 34.6620766,7.90812 C34.9045447,7.90812 35.1329702,8.00240571 35.3061617,8.17400571 C35.4802894,8.34654857 35.5776511,8.57849143 35.5795234,8.82552 C35.5813957,9.07254857 35.4877787,9.30543429 35.3155234,9.48080571 L19.8556085,27.4658057 C19.3697362,27.9645771 18.7537362,28.2238629 18.0946723,28.2238629 L18.0946723,28.2238629 Z" id="Fill-10" fill="#FFFFFF"></path>
                <path d="M18.1132085,22.2682114 C18.1132085,20.3862686 19.6279319,18.8616686 21.4955915,18.8616686 C23.3641872,18.8616686 24.8789106,20.3862686 24.8789106,22.2682114 C24.8789106,24.1501543 23.3641872,25.6747543 21.4955915,25.6747543 C19.6279319,25.6747543 18.1132085,24.1501543 18.1132085,22.2682114" id="Fill-12" fill="#33C6D9"></path>
                <path d="M21.4961532,19.4205 C19.9364936,19.4205 18.667983,20.6980714 18.667983,22.2679286 C18.667983,23.8387286 19.9364936,25.1153571 21.4961532,25.1153571 C23.0558128,25.1153571 24.3233872,23.8387286 24.3233872,22.2679286 C24.3233872,20.6980714 23.0558128,19.4205 21.4961532,19.4205 M21.4961532,26.2345286 C19.3242383,26.2345286 17.5576851,24.4553571 17.5576851,22.2679286 C17.5576851,20.0814429 19.3242383,18.3022714 21.4961532,18.3022714 C23.6671319,18.3022714 25.4336851,20.0814429 25.4336851,22.2679286 C25.4336851,24.4553571 23.6671319,26.2345286 21.4961532,26.2345286" id="Fill-14" fill="#FFFFFF"></path>
                <path d="M21.4961532,20.8321457 C20.7097702,20.8321457 20.070366,21.4761171 20.070366,22.2681171 C20.070366,23.0601171 20.7097702,23.7040886 21.4961532,23.7040886 C22.2825362,23.7040886 22.9219404,23.0601171 22.9219404,22.2681171 C22.9219404,21.4761171 22.2825362,20.8321457 21.4961532,20.8321457 M21.4961532,24.07746 C20.5056851,24.07746 19.7005787,23.26566 19.7005787,22.2681171 C19.7005787,21.2705743 20.5056851,20.4597171 21.4961532,20.4597171 C22.4866213,20.4597171 23.2917277,21.2705743 23.2917277,22.2681171 C23.2917277,23.26566 22.4866213,24.07746 21.4961532,24.07746" id="Fill-16" fill="#FFFFFF"></path>
                <mask id="mask-4" fill="white">
                    <use xlink:href="#path-3"></use>
                </mask>
                <g id="Clip-19"></g>
                <polygon id="Fill-18" fill="#FFFFFF" mask="url(#mask-4)" points="21.5131915 8.15354571 21.8829787 8.15354571 21.8829787 4.99026 21.5131915 4.99026"></polygon>
                <polygon id="Fill-20" fill="#FFFFFF" mask="url(#mask-4)" points="3.45540426 23.5900029 6.59625532 23.5900029 6.59625532 23.2175743 3.45540426 23.2175743"></polygon>
                <polygon id="Fill-21" fill="#FFFFFF" mask="url(#mask-4)" points="14.0311319 10.3450286 12.4780255 7.59471429 12.8000681 7.41085714 14.3531745 10.1611714"></polygon>
                <polygon id="Fill-22" fill="#FFFFFF" mask="url(#mask-4)" points="8.52242553 15.9896314 5.80378723 14.4056314 5.98821277 14.0831743 8.70778723 15.6671743"></polygon>
                <polygon id="Fill-23" fill="#FFFFFF" mask="url(#mask-4)" points="36.663234 23.5900029 39.8040851 23.5900029 39.8040851 23.2175743 36.663234 23.2175743"></polygon>
                <polygon id="Fill-24" fill="#FFFFFF" mask="url(#mask-4)" points="29.2278894 10.3450286 28.9058468 10.1611714 30.458017 7.41085714 30.7800596 7.59471429"></polygon>
                <polygon id="Fill-25" fill="#FFFFFF" mask="url(#mask-4)" points="34.7366894 15.9896314 34.5513277 15.6671743 37.2709021 14.0831743 37.4553277 14.4056314"></polygon>
            </g>
        </g>
    </g>
</svg>