<?xml version="1.0" encoding="UTF-8" standalone="no"?>
<svg width="45px" height="34px" viewBox="0 0 45 34" version="1.1" xmlns="http://www.w3.org/2000/svg" xmlns:xlink="http://www.w3.org/1999/xlink">
    <!-- Generator: sketchtool 40 (33762) - http://www.bohemiancoding.com/sketch -->
    <title>58C84CE9-FC7F-4175-8678-D7CEB6FED621</title>
    <desc>Created with sketchtool.</desc>
    <defs></defs>
    <g id="Main-Screens" stroke="none" stroke-width="1" fill="none" fill-rule="evenodd">
        <g id="Locations" transform="translate(-14.000000, -508.000000)">
            <g id="Group-2">
                <g id="icon_nav_users" transform="translate(14.000000, 508.000000)">
                    <path d="M22.7238,19.8215 C19.0638,18.9765 15.6568,18.2355 17.3068,15.1195 C22.3298,5.6345 18.6378,0.5625 13.3348,0.5625 C7.9258,0.5625 4.3268,5.8295 9.3628,15.1195 C11.0628,18.2535 7.5268,18.9945 3.9458,19.8215 C0.6758,20.5775 0.5528,22.2015 0.5638,25.0405 L0.5678,26.1045 L26.0998,26.1045 L26.1038,25.0735 C26.1168,22.2125 26.0058,20.5805 22.7238,19.8215" id="Fill-1" fill="#33C6D9"></path>
                    <path d="M1.1282,25.5425 L25.5392,25.5425 L25.5412,25.0715 C25.5542,22.2145 25.4462,21.0285 22.5972,20.3695 L22.4562,20.3375 C19.7812,19.7195 17.2542,19.1365 16.5222,17.5325 C16.1752,16.7735 16.2712,15.8725 16.8092,14.8565 C19.2832,10.1865 19.7982,6.2095 18.2622,3.6575 C17.2792,2.0245 15.5292,1.1255 13.3352,1.1255 C11.1222,1.1255 9.3602,2.0395 8.3722,3.6995 C6.8322,6.2845 7.3602,10.2445 9.8572,14.8515 C10.4062,15.8615 10.5092,16.7605 10.1662,17.5215 C9.4392,19.1325 6.9392,19.7085 4.2932,20.3185 L4.0722,20.3695 C1.2242,21.0275 1.1152,22.2045 1.1262,25.0385 L1.1282,25.5425 Z M26.1002,26.6675 L0.5682,26.6675 C0.2582,26.6675 0.0072,26.4175 0.0052,26.1075 L0.0012,25.0425 C-0.0088,22.4225 -0.0178,20.1595 3.8192,19.2735 L4.0402,19.2225 C6.3032,18.7005 8.6432,18.1615 9.1402,17.0595 C9.3342,16.6295 9.2452,16.0825 8.8692,15.3875 C6.1752,10.4185 5.6552,6.0635 7.4052,3.1235 C8.5872,1.1385 10.7482,0.0005 13.3352,0.0005 C15.9012,0.0005 18.0482,1.1215 19.2262,3.0775 C20.9742,5.9805 20.4682,10.3505 17.8032,15.3825 C17.4322,16.0835 17.3482,16.6345 17.5452,17.0655 C18.0472,18.1655 20.4172,18.7115 22.7082,19.2405 L22.8502,19.2735 C26.6882,20.1605 26.6782,22.4385 26.6662,25.0765 L26.6622,26.1075 C26.6612,26.4175 26.4092,26.6675 26.1002,26.6675 L26.1002,26.6675 Z" id="Fill-3" fill="#FFFFFF"></path>
                    <path d="M40.4738,19.8215 C36.8138,18.9765 33.4068,18.2355 35.0568,15.1195 C40.0798,5.6345 36.3878,0.5625 31.0848,0.5625 C25.6758,0.5625 22.0768,5.8295 27.1128,15.1195 C28.8128,18.2535 25.2768,18.9945 21.6958,19.8215 C18.4258,20.5775 18.3028,22.2015 18.3138,25.0405 L18.3178,26.1045 L43.8498,26.1045 L43.8538,25.0735 C43.8668,22.2125 43.7558,20.5805 40.4738,19.8215" id="Fill-5" fill="#18A6B9"></path>
                    <path d="M18.8782,25.5425 L43.2892,25.5425 L43.2912,25.0715 C43.3042,22.2145 43.1962,21.0285 40.3472,20.3695 L40.2062,20.3375 C37.5312,19.7195 35.0042,19.1365 34.2722,17.5325 C33.9252,16.7735 34.0212,15.8725 34.5592,14.8565 C37.0332,10.1865 37.5482,6.2095 36.0122,3.6575 C35.0292,2.0245 33.2792,1.1255 31.0852,1.1255 C28.8722,1.1255 27.1102,2.0395 26.1222,3.6995 C24.5822,6.2845 25.1102,10.2445 27.6072,14.8515 C28.1562,15.8615 28.2592,16.7605 27.9162,17.5215 C27.1892,19.1325 24.6892,19.7085 22.0432,20.3185 L21.8222,20.3695 C18.9742,21.0275 18.8652,22.2045 18.8762,25.0385 L18.8782,25.5425 Z M44.4102,26.6675 L17.7572,26.6675 L17.7512,25.0425 C17.7412,22.4225 17.7322,20.1595 21.5692,19.2735 L21.7902,19.2225 C24.0532,18.7005 26.3932,18.1615 26.8902,17.0595 C27.0842,16.6295 26.9952,16.0825 26.6192,15.3875 C23.9252,10.4185 23.4052,6.0635 25.1552,3.1235 C26.3372,1.1385 28.4982,0.0005 31.0852,0.0005 C33.6512,0.0005 35.7982,1.1215 36.9762,3.0775 C38.7242,5.9805 38.2182,10.3505 35.5532,15.3825 C35.1822,16.0835 35.0982,16.6345 35.2952,17.0655 C35.7972,18.1655 38.1672,18.7115 40.4582,19.2405 L40.6002,19.2735 C44.4382,20.1605 44.4282,22.4385 44.4162,25.0765 L44.4102,26.6675 Z" id="Fill-7" fill="#FFFFFF"></path>
                    <path d="M32.7145,25.5537 C28.5705,24.5967 24.7145,23.7587 26.5815,20.2307 C32.2685,9.4927 28.0885,3.7497 22.0845,3.7497 C15.9615,3.7497 11.8865,9.7127 17.5885,20.2307 C19.5125,23.7787 15.5095,24.6177 11.4555,25.5537 C7.7525,26.4087 7.6145,28.2477 7.6265,31.4627 L7.6315,32.6677 L36.5365,32.6677 L36.5415,31.4997 C36.5555,28.2607 36.4305,26.4127 32.7145,25.5537" id="Fill-9" fill="#33C6D9"></path>
                    <path d="M8.1914,32.105 L35.9764,32.105 L35.9784,31.497 C35.9924,28.303 35.8614,26.858 32.5874,26.102 L32.4284,26.065 C29.4184,25.37 26.5744,24.714 25.7604,22.931 C25.3774,22.094 25.4864,21.097 26.0844,19.967 C28.8974,14.657 29.4804,10.128 27.7264,7.215 C26.5994,5.343 24.5964,4.313 22.0854,4.313 C19.5534,4.313 17.5354,5.36 16.4024,7.263 C14.6454,10.213 15.2424,14.723 18.0824,19.963 C18.6914,21.085 18.8084,22.08 18.4294,22.92 C17.6224,24.709 14.8104,25.358 11.8324,26.044 L11.5824,26.102 C8.3094,26.858 8.1764,28.291 8.1884,31.46 L8.1914,32.105 Z M36.5364,33.23 L7.6314,33.23 C7.3214,33.23 7.0694,32.98 7.0684,32.67 L7.0634,31.464 C7.0524,28.53 7.0434,25.996 11.3284,25.006 L11.5804,24.948 C14.1594,24.353 16.8264,23.739 17.4034,22.457 C17.6334,21.948 17.5324,21.307 17.0944,20.499 C14.0574,14.897 13.4684,9.992 15.4354,6.687 C16.7604,4.463 19.1834,3.188 22.0854,3.188 C24.9634,3.188 27.3714,4.444 28.6904,6.635 C30.6554,9.899 30.0834,14.821 27.0784,20.494 C26.6474,21.309 26.5504,21.954 26.7834,22.464 C27.3684,23.743 30.0694,24.366 32.6814,24.969 L32.8414,25.006 C36.9214,25.949 37.1184,28.089 37.1034,31.502 L37.0994,32.67 C37.0974,32.98 36.8464,33.23 36.5364,33.23 L36.5364,33.23 Z" id="Fill-11" fill="#FFFFFF"></path>
                </g>
            </g>
        </g>
    </g>
</svg>