<?xml version="1.0" encoding="UTF-8"?>
<svg width="45px" height="14px" viewBox="0 0 45 14" version="1.1" xmlns="http://www.w3.org/2000/svg" xmlns:xlink="http://www.w3.org/1999/xlink">
    <!-- Generator: Sketch 46.2 (44496) - http://www.bohemiancoding.com/sketch -->
    <title>Group</title>
    <desc>Created with Sketch.</desc>
    <defs></defs>
    <g id="Main-Screens" stroke="none" stroke-width="1" fill="none" fill-rule="evenodd">
        <g id="Shopping-List" transform="translate(-16.000000, -841.000000)">
            <g id="Group" transform="translate(16.000000, 841.000000)">
                <path d="M44.6721869,5.89465909 L44.6711977,5.90257338 C44.7384691,7.60365021 44.5084602,9.45114133 43.9826548,10.0526271 C43.7476994,10.3227021 43.4875173,10.3790914 43.3109298,10.3790914 C42.9369798,10.3790914 42.5808369,10.116436 42.2721797,9.77117527 C41.9842976,10.6541128 41.5376351,11.3901414 40.8367261,11.6453771 C40.6883333,11.6997878 40.5438975,11.7274878 40.4044083,11.7274878 C40.0992136,11.7274878 39.8241922,11.5964075 39.6075386,11.349086 C39.4868457,11.2095967 39.3849493,11.0265789 39.3003654,10.8128932 C38.9803314,11.2709325 38.5969832,11.6231182 38.1344921,11.8046521 C37.8515564,11.9164414 37.5780189,11.972336 37.32031,11.972336 C36.8256671,11.972336 36.3794992,11.7616182 36.0317653,11.3619467 C35.9704296,11.2926967 35.9135456,11.2165217 35.8601242,11.1383682 C35.7404206,11.439111 35.5865867,11.6997878 35.3788367,11.910011 C34.9895527,12.3042414 34.4444563,12.5030878 33.7598706,12.5030878 L33.7084277,12.5025932 C32.2803937,12.4833021 31.3415616,12.3838789 30.8508758,11.8204807 C30.6376848,12.8236164 29.3333115,13.4176825 27.3032972,13.4176825 C25.8816936,13.4176825 23.8017203,13.0684646 23.1418667,12.1424932 C23.0483792,12.3067146 22.9430203,12.4590646 22.8168863,12.5941021 C21.9754988,13.5002879 20.6973416,13.5166111 19.0793648,13.5378807 C18.8360005,13.5403539 18.5822487,13.5438164 18.3186041,13.5507414 C18.2424291,13.5522254 18.1682326,13.5532147 18.0950255,13.5532147 C15.4076308,13.5532147 14.598395,12.3052307 14.3669022,11.72452 C13.9162825,12.0401021 13.1426611,12.0509843 11.9550235,12.0658235 L11.9040753,12.0663182 C10.6645003,12.0663182 10.0377878,11.4865967 9.71824848,10.5710128 C9.58024312,10.9350699 9.40266633,11.2734057 9.1691949,11.5410075 C8.81997703,11.9396896 8.37479844,12.1509021 7.88015557,12.1509021 L7.87966093,12.1509021 C7.62294128,12.1509021 7.34890913,12.0955021 7.06547877,11.9832182 C6.42738946,11.7319396 5.93225195,11.1611217 5.5578073,10.4216306 C5.45541622,10.8015164 5.31493765,11.1185824 5.12647871,11.335236 C4.91081442,11.5820628 4.63529834,11.7131432 4.33010369,11.7131432 C4.19110904,11.7131432 4.04617868,11.6859378 3.89828046,11.6315271 C3.41303581,11.4549396 3.04848401,11.0468592 2.77494651,10.5200646 C2.53356078,10.7560092 2.26348578,10.9152842 1.9741197,10.9152842 C1.81237148,10.9152842 1.57049111,10.8663146 1.33652504,10.6323485 C0.804783951,10.0996181 0.46348037,8.44503773 0.387800011,6.83299662 C0.359605367,6.74940197 0.353669653,6.65789304 0.376917868,6.56638411 C0.37741251,6.56539482 0.377907153,6.56490018 0.377907153,6.56341625 C0.364551796,6.08212874 0.373455367,5.61073408 0.411048226,5.17990014 C0.389778582,4.87520013 0.37395001,4.54774655 0.37395001,4.2494769 C0.37395001,3.39226081 0.695962519,2.73883758 1.23413396,2.39852328 C1.71492683,2.0953072 2.13092149,3.01039651 2.13092149,3.01039651 C2.13092149,3.01039651 2.60231614,1.75548755 3.51196438,1.55317861 C4.42210726,1.35086968 4.98550549,2.2407322 4.98550549,2.2407322 C4.98550549,2.2407322 5.155168,0.875517881 6.37743053,1.08722503 C7.53984128,1.28805004 9.01981275,2.2407322 9.01981275,2.2407322 C9.01981275,2.2407322 9.91313777,0.942294669 11.3901414,0.942294669 C12.8666504,0.942294669 13.6244432,2.19967685 14.1101825,2.2407322 C14.5954272,2.28178756 15.3794361,0.790439307 18.2676559,0.426876797 C21.1558756,0.0633142875 22.7644542,2.11212506 23.4742667,2.2407322 C24.1835846,2.36933935 25.6264578,1.06941789 27.7875526,0.698930376 C29.6142687,0.385821439 30.3527705,2.29959471 31.1298544,2.54840007 C31.9064437,2.79720543 32.2596187,1.55367326 33.6945777,1.55367326 C35.4317635,1.55367326 36.1420706,2.82490543 36.1420706,2.82490543 C36.1420706,2.82490543 37.0581492,1.37461254 38.4639243,1.26232861 C39.3335064,1.19208932 39.6772832,1.66397862 39.8795922,2.05573577 C39.9834672,2.1922572 40.0734922,2.34955364 40.1496672,2.52366793 C40.1694529,2.53801257 40.1907225,2.54840007 40.2139708,2.54840007 C40.6779458,2.54840007 40.8431565,1.80099469 41.365994,1.70157148 C42.1099369,1.56059826 42.3745708,2.54840007 42.3745708,2.54840007 C42.3745708,2.54840007 42.6515708,2.16010542 43.3307155,2.0122072 C43.7674851,1.91674112 44.3788637,2.37032864 44.4377262,2.90948937 C44.5148905,3.61633403 44.5544619,4.22128226 44.5712798,4.71988227 C44.6093673,4.99490371 44.636078,5.28624836 44.6548744,5.58402337 C44.6825744,5.6824573 44.691478,5.78732159 44.6721869,5.89465909 Z M1.23908039,7.815852 C1.35977325,8.85905382 1.58730897,9.77463777 1.89101969,10.0778538 C1.92416077,10.1114896 1.95532327,10.1312753 1.97362505,10.1312753 C2.08442506,10.1312753 2.25656078,9.96260206 2.44304114,9.7034092 C2.21698935,8.98617703 2.09481256,8.1769413 2.03100363,7.44833235 C2.02597222,7.377483 1.97702999,6.4327602 1.97659291,6.42095911 C1.95730184,5.60875551 1.98549648,4.67783763 2.09233934,3.89481796 C1.96472148,3.81122332 1.84254469,3.75532867 1.74114291,3.75532867 C1.70206612,3.75532867 1.61154647,3.75532867 1.49283218,3.92449654 C1.29610536,4.20532771 1.24293132,7.81553109 1.23908039,7.815852 Z M2.83133579,7.59029485 C2.87090722,7.97463236 2.92630722,8.3535288 3.00050365,8.71511274 C3.03512866,8.88675382 3.07420544,9.05443775 3.11773401,9.21668061 C3.12614294,9.24833775 3.1360358,9.2765324 3.14493937,9.3076949 C3.19786616,9.49071276 3.2537608,9.66136455 3.31460188,9.81519848 C3.54708403,10.4048128 3.83645011,10.7757949 4.1663769,10.8969824 C4.22771262,10.9182521 4.28261798,10.9291342 4.3291144,10.9291342 C4.38352512,10.9291342 4.45079655,10.9162735 4.53488584,10.8198182 C4.80644478,10.5081931 4.94395549,9.77859491 4.99539835,8.88230203 C4.91526621,8.57413952 4.85145728,8.25756808 4.79655192,7.93901808 C4.79455342,7.92742319 4.63824614,6.69929767 4.62936263,6.57726625 C4.61551263,6.37891446 4.60413584,6.18353053 4.59820013,5.99309302 C4.58830727,5.65030551 4.5863287,4.98204299 4.66893406,4.27569297 C4.13026797,3.58962331 3.43381081,2.92729651 3.12465901,2.92680187 C3.05738758,3.0321608 2.99160008,3.25623402 2.93422151,3.56142867 C2.90701615,3.70586439 2.88178937,3.87008582 2.85903579,4.04914654 C2.83776615,4.21633583 2.81896972,4.39490191 2.80314115,4.58682334 C2.757634,5.14576978 2.73784829,5.79424659 2.75713936,6.46696089 C2.75896349,6.51393218 2.83627578,7.59125023 2.83133579,7.59029485 Z M5.62408944,8.07108772 C5.62152914,8.07068346 5.7240073,8.54594488 5.78583766,8.77199667 C6.11873231,9.99277528 6.64800018,10.9766199 7.35187699,11.2541146 C7.54330378,11.329795 7.72088057,11.3673878 7.87966093,11.3673878 C8.14874665,11.3673878 8.37677702,11.2560932 8.57760202,11.0265789 C9.06433061,10.4681271 9.26713418,9.40563419 9.33984669,8.56721452 C9.34134558,8.54993136 9.36543388,7.46218362 9.3596324,7.42112699 C9.33984669,7.27520734 9.2973074,7.06943591 9.24635918,6.84239483 C9.10241811,6.21271446 8.88230203,5.41436086 8.83679489,5.24964479 C8.33176452,4.1698394 7.23217341,2.48854828 6.38039839,2.48854828 C6.28987874,2.48854828 6.20381089,2.50783935 6.11774303,2.54790543 C5.86844302,2.66216793 5.6270573,3.21171616 5.49103051,4.06002868 C5.40595193,4.5897912 5.36143408,5.23678407 5.38319836,5.96984481 C5.38962872,6.18501446 5.40347872,6.40463589 5.42079122,6.6227734 C5.43240295,6.76658014 5.62664975,8.07149198 5.62408944,8.07108772 Z M11.903086,11.2828039 L11.9441414,11.2828039 C13.6827443,11.254924 13.862071,11.2499921 14.0066031,10.5851893 C14.0879483,10.2110266 14.1622629,9.58710254 14.1502486,8.99458596 C14.1311004,8.05024715 14.0743304,7.41775383 14.0270825,7.10801805 C13.8396129,5.87883052 13.3914664,4.64420191 12.3868468,4.17824833 C11.7339182,3.87503225 11.2565878,3.72812332 10.926661,3.72812332 C10.7006092,3.72812332 10.6016806,3.7983626 10.5398503,3.86019296 C10.1767824,4.2252394 10.1540289,5.46679301 10.1614485,6.6019984 L10.1629324,6.89433233 L10.1629324,6.97347519 C10.1643737,7.22858362 10.2014195,8.37886191 10.2067198,8.66184525 C10.21202,8.94482859 10.6046485,11.2828039 11.903086,11.2828039 Z M15.0504986,9.04949132 C15.0160117,10.1763781 14.9748183,10.9716735 15.0509933,11.307536 C15.0509933,11.307536 15.2948522,12.7697004 18.0945309,12.7697004 C18.1618023,12.7697004 18.2290737,12.7687111 18.2988184,12.7672271 C21.0831631,12.6989664 22.7590131,12.9744825 22.803531,10.1352324 C22.8064988,9.95765563 22.8015524,9.76523955 22.7911649,9.56194133 C22.789681,9.52236991 22.7906703,9.48823955 22.7881971,9.44767883 C22.782756,9.3630949 22.7809958,9.32356738 22.7708846,9.19986275 C22.7018529,8.35530396 22.6559152,7.74518631 22.6299113,7.51115199 C22.3360935,4.87470549 21.6643685,2.89959651 19.5027791,2.36686614 C19.1545505,2.28079828 18.8275916,2.24122685 18.5228916,2.24122685 C16.4978237,2.24122685 15.437804,3.96654118 15.3428326,5.14032871 C15.306229,5.59193765 15.2414308,6.34280553 15.1776218,7.16984841 C15.1551439,7.46159341 15.079326,8.10753433 15.0504986,9.04949132 Z M23.5816042,9.70588241 C23.5825935,9.81371456 23.586056,9.91758956 23.5890239,10.0184967 C23.6191971,10.9231985 23.717631,11.5400182 23.7205989,11.556836 C23.8032042,12.055436 25.3860614,12.6346628 27.3028025,12.6346628 C28.9173169,12.6346628 30.0391669,12.2127325 30.0945669,11.58602 C30.1890437,10.5383664 30.2006152,10.1927799 30.2506355,8.79585314 C30.2787688,8.01016827 30.2574006,7.41099887 30.250874,7.22079663 C30.1504615,4.39045012 29.5761812,3.25079295 29.1616704,2.79621615 C28.9237472,2.53652864 28.6605972,2.40445899 28.3801347,2.40445899 C28.2460865,2.40445899 28.1560615,2.43661078 28.1560615,2.43710542 L28.0690043,2.459859 C26.7359418,2.65326436 25.6818579,3.26810545 24.9369257,4.28805905 C24.2528346,5.22491264 23.8981757,6.3897966 23.7255453,7.51313056 C23.6920695,7.73424696 23.6593249,8.34822001 23.5931061,9.18330976 C23.5931061,9.18330976 23.579131,9.53918776 23.5816042,9.70588241 Z M31.2213634,10.3776074 C31.2297723,11.4193253 31.3301848,11.6869271 33.7178259,11.7200682 L33.7588813,11.7200682 C34.2332438,11.7200682 34.5804831,11.6013539 34.8203849,11.3589789 C35.1072778,11.0701074 35.2601224,10.5893146 35.3447063,9.97991456 C35.4149456,9.46944312 35.401336,9.08318827 35.428775,8.1836471 C35.4458539,7.62374448 35.4342058,7.1185368 35.433742,7.06102698 L35.4317635,6.93736626 L35.4287956,6.65888233 C35.4248385,6.26811446 35.4164295,5.92631623 35.4020849,5.61963765 C35.3308563,4.03628583 35.1122242,3.51691081 34.5982902,3.51691081 C34.270342,3.51691081 33.7944956,3.67420724 33.1445348,3.99918761 C32.1592062,4.49234655 31.6521973,5.80760195 31.4053705,7.15896627 C31.3693198,7.35219802 31.2663294,8.4571421 31.2364846,8.70049883 C31.228924,9.53905313 31.1906955,9.97496813 31.2213634,10.3776074 Z M36.1430599,9.91758956 C36.259301,10.2811521 36.4141242,10.6100896 36.6213796,10.8470235 C36.9414135,11.2135539 37.3306975,11.2783521 37.8471046,11.0760432 C38.3234457,10.8890682 38.7186654,10.3756289 39.0293011,9.68708598 C39.1450475,9.42838776 39.2489225,9.14545204 39.3409261,8.84421453 C39.4695018,8.42293422 39.5385724,8.20014918 39.6485098,7.47592964 C39.7772376,6.62792682 39.7960586,5.95408036 39.8182565,5.6997698 C39.8316118,5.08987514 39.7999547,4.54181084 39.7361457,4.0728894 C39.710919,3.88739832 39.6812404,3.71377867 39.64711,3.55450367 C39.5061368,2.89366079 39.2969029,2.46826793 39.0817332,2.36835007 C38.1869243,1.95383934 36.9216278,3.87602154 36.3626814,5.07107871 C36.3404224,5.15269478 36.2741403,5.39061801 36.1959867,5.68740373 C36.2058796,6.00446981 36.2098367,6.32945017 36.2132992,6.65195733 C36.2132992,6.65195733 36.2167044,6.85249402 36.2172564,7.05311269 C36.218683,7.571655 36.2172564,8.06703108 36.2172564,8.09027929 C36.2218493,8.75801324 36.2056787,9.37505669 36.1430599,9.91758956 Z M41.8428297,3.82903046 C41.8126565,3.62622689 41.7775369,3.45260724 41.7414279,3.30817152 C41.7003726,3.14246616 41.6553601,3.01633223 41.6103476,2.94411437 C41.3620369,2.95895365 40.9188368,3.32696795 40.4884975,3.7914376 C40.6121583,4.60512513 40.611169,5.42128586 40.5997922,5.81304302 C40.5956718,5.97099041 40.6061076,6.70432729 40.4901877,7.3119516 C40.2235013,8.70985681 40.1486779,9.06927704 39.8345797,9.82410206 C39.9127332,10.2821414 40.0289743,10.6402628 40.1981422,10.8346574 C40.3554386,11.0152021 40.4355708,10.9588128 40.5666511,10.9108324 C40.9979797,10.7530414 41.3600583,10.1723306 41.6157886,9.23102525 C41.6400261,9.13902168 41.6608011,9.04207168 41.6835547,8.9466056 C41.7285672,8.75072703 41.7691279,8.55188059 41.8042476,8.34709844 C41.836894,8.14380022 41.8406631,8.03734544 41.8770508,7.72754279 C41.881819,7.29294125 41.9120899,4.28770741 41.8428297,3.82903046 Z M42.702519,7.45871985 C42.6649262,7.88905915 42.607053,8.34561452 42.5199958,8.79524489 C42.8296423,9.26317704 43.1422565,9.59607169 43.3109298,9.59607169 L43.3925458,9.53770383 C43.6694564,9.22221134 43.8361552,7.10006061 43.8330171,5.14373956 C43.8312088,4.01645695 43.6072208,3.65046439 43.382653,3.37049652 C43.2589923,3.21765187 43.1729244,3.21765187 43.1397833,3.21765187 L42.5852887,3.55203045 C42.7064794,4.21833621 42.7288594,4.69720398 42.764545,5.88642255 C42.7874746,6.65054867 42.7198315,7.26877699 42.702519,7.45871985 Z" id="Combined-Shape" fill="#FFFFFF"></path>
                <path d="M0.997070312,6.66503906 C8.4660998,7.81315104 15.8152209,8.38720703 23.0444336,8.38720703 C30.2736463,8.38720703 37.3455864,7.62792969 44.2602539,6.109375" id="Line" stroke="#FFFFFF" stroke-width="0.5" stroke-linecap="square"></path>
                <rect id="Rectangle-4" fill="#FFFFFF" transform="translate(18.694824, 8.302734) rotate(2.000000) translate(-18.694824, -8.302734) " x="17.1948242" y="6.80273438" width="3" height="3" rx="0.5"></rect>
                <rect id="Rectangle-4" fill="#FFFFFF" transform="translate(12.051435, 7.943281) rotate(3.000000) translate(-12.051435, -7.943281) " x="11.0514355" y="6.94328119" width="2" height="2" rx="0.5"></rect>
                <rect id="Rectangle-4" fill="#FFFFFF" transform="translate(7.343934, 7.477967) rotate(3.000000) translate(-7.343934, -7.477967) " x="6.34393424" y="6.47796744" width="2" height="2" rx="0.5"></rect>
                <rect id="Rectangle-4" fill="#FFFFFF" transform="translate(38.035585, 7.253602) rotate(-8.000000) translate(-38.035585, -7.253602) " x="37.0355846" y="6.25360221" width="2" height="2" rx="0.5"></rect>
                <rect id="Rectangle-4" fill="#FFFFFF" transform="translate(33.633485, 7.805360) rotate(-5.000000) translate(-33.633485, -7.805360) " x="32.633485" y="6.80536002" width="2" height="2" rx="0.5"></rect>
                <rect id="Rectangle-4" fill="#FFFFFF" transform="translate(27.400879, 8.291016) rotate(-1.000000) translate(-27.400879, -8.291016) " x="25.9008789" y="6.79101562" width="3" height="3" rx="0.5"></rect>
            </g>
        </g>
    </g>
</svg>