<?xml version="1.0" encoding="UTF-8"?>
<svg width="45px" height="44px" viewBox="0 0 45 44" version="1.1" xmlns="http://www.w3.org/2000/svg" xmlns:xlink="http://www.w3.org/1999/xlink">
    <!-- Generator: Sketch 46.2 (44496) - http://www.bohemiancoding.com/sketch -->
    <title>pie-chart</title>
    <desc>Created with Sketch.</desc>
    <defs>
        <path d="M20,23.1770833 L34.21875,37.3958333 C32.3784722,39.2708333 30.2300347,40.7291667 27.7734375,41.7708333 C25.3168403,42.8125 22.7256944,43.3333333 20,43.3333333 C16.3715278,43.3333333 13.0251736,42.4392361 9.9609375,40.6510417 C6.89670139,38.8628472 4.47048611,36.4366319 2.68229167,33.3723958 C0.894097222,30.3081597 0,26.9618056 0,23.3333333 C0,19.7048611 0.894097222,16.3585069 2.68229167,13.2942708 C4.47048611,10.2300347 6.89670139,7.80381944 9.9609375,6.015625 C13.0251736,4.22743056 16.3715278,3.33333333 20,3.33333333 L20,23.1770833 Z" id="path-1"></path>
        <path d="M43.3333333,20 L23.3333333,20 L23.3333333,0 C26.9618056,0 30.3081597,0.894097222 33.3723958,2.68229167 C36.4366319,4.47048611 38.8628472,6.89670139 40.6510417,9.9609375 C42.4392361,13.0251736 43.3333333,16.3715278 43.3333333,20 Z" id="path-2"></path>
        <path d="M24.8697917,23.3333333 L45,23.3333333 C45,26.0590278 44.4791667,28.6501736 43.4375,31.1067708 C42.3958333,33.5633681 40.9375,35.7118056 39.0625,37.5520833 L24.8697917,23.3333333 Z" id="path-3"></path>
    </defs>
    <g id="Main-Screens" stroke="none" stroke-width="1" fill="none" fill-rule="evenodd">
        <g id="Shopping-List" transform="translate(-15.000000, -708.000000)">
            <g id="SideNav">
                <g id="pie-chart" transform="translate(15.000000, 708.000000)">
                    <g id="Shape" fill-rule="nonzero">
                        <use fill="#33C6D9" fill-rule="evenodd" xlink:href="#path-1"></use>
                        <path stroke="#FFFFFF" stroke-width="1" d="M19.4999997,3.83916675 C16.1521519,3.91758036 13.0590845,4.78655251 10.2129491,6.44747007 C7.22315557,8.19222209 4.85888875,10.5564889 3.11413674,13.5462824 C1.37084437,16.5335747 0.5,19.7929 0.5,23.3333333 C0.5,26.8737667 1.37084437,30.133092 3.11413674,33.1203843 C4.85888875,36.1101778 7.22315557,38.4744446 10.2129491,40.2191966 C13.2002413,41.962489 16.4595666,42.8333333 20,42.8333333 C22.658992,42.8333333 25.1837355,42.3258472 27.5782461,41.310507 C29.8196962,40.3600688 31.7962153,39.0553167 33.5105177,37.3947079 L19.5,23.3841901 L19.5,3.83916146 Z"></path>
                    </g>
                    <g id="Path">
                        <use fill="#33C6D9" fill-rule="evenodd" xlink:href="#path-2"></use>
                        <path stroke="#FFFFFF" stroke-width="1" d="M42.8274999,19.4999997 C42.7490863,16.1521519 41.8801142,13.0590845 40.2191966,10.2129491 C38.4744446,7.22315557 36.1101778,4.85888875 33.1203843,3.11413674 C30.2742488,1.45321918 27.1811814,0.584247028 23.8333336,0.505833414 L23.8333333,19.5 L42.8275052,19.5 Z"></path>
                    </g>
                    <g id="Path">
                        <use fill="#18A6B9" fill-rule="evenodd" xlink:href="#path-3"></use>
                        <path stroke="#FFFFFF" stroke-width="1" d="M26.0753355,23.8333333 L39.061695,36.8435211 C40.722151,35.1292947 42.0267966,33.1528855 42.9771737,30.9115795 C43.9286694,28.6676354 44.4341707,26.3093216 44.4939803,23.8333333 L26.0753355,23.8333333 Z"></path>
                    </g>
                </g>
            </g>
        </g>
    </g>
</svg>