<?xml version="1.0" encoding="UTF-8" standalone="no"?>
<svg width="39px" height="37px" viewBox="0 0 39 37" version="1.1" xmlns="http://www.w3.org/2000/svg" xmlns:xlink="http://www.w3.org/1999/xlink">
    <!-- Generator: sketchtool 41.2 (35397) - http://www.bohemiancoding.com/sketch -->
    <title>E45C076C-03F2-4765-A8A8-CEF5A13E2FAE</title>
    <desc>Created with sketchtool.</desc>
    <defs>
        <polygon id="path-1" points="0 37 38.942 37 38.942 0.45 0 0.45"></polygon>
    </defs>
    <g id="Main-Screens" stroke="none" stroke-width="1" fill="none" fill-rule="evenodd">
        <g id="frame-blue-open" transform="translate(-15.000000, -157.000000)">
            <g id="icon_nav_shoppinglist" transform="translate(15.000000, 156.000000)">
                <polygon id="Fill-1" fill="#FFFFFF" points="14.827 8.1058 27.436 8.1058 27.436 7.7068 14.827 7.7068"></polygon>
                <g id="Group-19" transform="translate(0.000000, 0.549800)">
                    <path d="M12.684,6.7585 C12.354,6.7585 12.086,7.0265 12.086,7.3565 C12.086,7.6865 12.354,7.9545 12.684,7.9545 C13.014,7.9545 13.282,7.6865 13.282,7.3565 C13.282,7.0265 13.014,6.7585 12.684,6.7585 Z M12.684,8.3535 C12.134,8.3535 11.687,7.9065 11.687,7.3565 C11.687,6.8065 12.134,6.3595 12.684,6.3595 C13.234,6.3595 13.681,6.8065 13.681,7.3565 C13.681,7.9065 13.234,8.3535 12.684,8.3535 Z" id="Fill-2" fill="#FFFFFF"></path>
                    <mask id="mask-2" fill="white">
                        <use xlink:href="#path-1"></use>
                    </mask>
                    <g id="Clip-5"></g>
                    <polygon id="Fill-4" fill="#FFFFFF" mask="url(#mask-2)" points="14.827 12.341 27.437 12.341 27.437 11.942 14.827 11.942"></polygon>
                    <path d="M12.684,11.5432 C12.354,11.5432 12.086,11.8112 12.086,12.1412 C12.086,12.4712 12.354,12.7392 12.684,12.7392 C13.014,12.7392 13.282,12.4712 13.282,12.1412 C13.282,11.8112 13.014,11.5432 12.684,11.5432 M12.684,13.1382 C12.134,13.1382 11.687,12.6912 11.687,12.1412 C11.687,11.5912 12.134,11.1442 12.684,11.1442 C13.234,11.1442 13.681,11.5912 13.681,12.1412 C13.681,12.6912 13.234,13.1382 12.684,13.1382" id="Fill-6" fill="#FFFFFF" mask="url(#mask-2)"></path>
                    <polygon id="Fill-7" fill="#FFFFFF" mask="url(#mask-2)" points="14.827 17.125 27.437 17.125 27.437 16.726 14.827 16.726"></polygon>
                    <path d="M12.684,16.3279 C12.354,16.3279 12.086,16.5959 12.086,16.9259 C12.086,17.2559 12.354,17.5239 12.684,17.5239 C13.014,17.5239 13.282,17.2559 13.282,16.9259 C13.282,16.5959 13.014,16.3279 12.684,16.3279 M12.684,17.9229 C12.134,17.9229 11.687,17.4759 11.687,16.9259 C11.687,16.3759 12.134,15.9289 12.684,15.9289 C13.234,15.9289 13.681,16.3759 13.681,16.9259 C13.681,17.4759 13.234,17.9229 12.684,17.9229" id="Fill-8" fill="#FFFFFF" mask="url(#mask-2)"></path>
                    <polygon id="Fill-9" fill="#FFFFFF" mask="url(#mask-2)" points="14.827 21.91 27.437 21.91 27.437 21.511 14.827 21.511"></polygon>
                    <path d="M12.684,21.1126 C12.354,21.1126 12.086,21.3806 12.086,21.7106 C12.086,22.0406 12.354,22.3086 12.684,22.3086 C13.014,22.3086 13.282,22.0406 13.282,21.7106 C13.282,21.3806 13.014,21.1126 12.684,21.1126 M12.684,22.7076 C12.134,22.7076 11.687,22.2606 11.687,21.7106 C11.687,21.1606 12.134,20.7136 12.684,20.7136 C13.234,20.7136 13.681,21.1606 13.681,21.7106 C13.681,22.2606 13.234,22.7076 12.684,22.7076" id="Fill-10" fill="#FFFFFF" mask="url(#mask-2)"></path>
                    <polygon id="Fill-11" fill="#FFFFFF" mask="url(#mask-2)" points="14.827 26.695 27.437 26.695 27.437 26.296 14.827 26.296"></polygon>
                    <path d="M12.684,25.8973 C12.354,25.8973 12.086,26.1653 12.086,26.4953 C12.086,26.8253 12.354,27.0933 12.684,27.0933 C13.014,27.0933 13.282,26.8253 13.282,26.4953 C13.282,26.1653 13.014,25.8973 12.684,25.8973 M12.684,27.4923 C12.134,27.4923 11.687,27.0453 11.687,26.4953 C11.687,25.9453 12.134,25.4983 12.684,25.4983 C13.234,25.4983 13.681,25.9453 13.681,26.4953 C13.681,27.0453 13.234,27.4923 12.684,27.4923" id="Fill-12" fill="#FFFFFF" mask="url(#mask-2)"></path>
                    <path d="M10.9649,37 C8.7299,37 6.9109,35.182 6.9109,32.946 L6.9109,4.504 C6.9109,2.928 5.6289,1.646 4.0539,1.646 C2.4779,1.646 1.1959,2.928 1.1959,4.504 C1.1959,4.834 0.9279,5.102 0.5979,5.102 C0.2679,5.102 -0.0001,4.834 -0.0001,4.504 C-0.0001,2.269 1.8189,0.45 4.0539,0.45 C6.2889,0.45 8.1069,2.269 8.1069,4.504 L8.1069,32.946 C8.1069,34.522 9.3889,35.804 10.9649,35.804 C12.5399,35.804 13.8219,34.522 13.8219,32.946 C13.8219,32.616 14.0899,32.348 14.4199,32.348 C14.7509,32.348 15.0179,32.616 15.0179,32.946 C15.0179,35.182 13.1999,37 10.9649,37" id="Fill-13" fill="#FFFFFF" mask="url(#mask-2)"></path>
                    <path d="M31.4326,33.3449 C31.1026,33.3449 30.8346,33.0769 30.8346,32.7469 L30.8346,4.5039 C30.8346,2.9279 29.5526,1.6459 27.9766,1.6459 L6.9256,1.6459 C7.6556,2.3799 8.1076,3.3899 8.1076,4.5039 C8.1076,4.8339 7.8396,5.1019 7.5096,5.1019 C7.1786,5.1019 6.9116,4.8339 6.9116,4.5039 C6.9116,2.9279 5.6296,1.6459 4.0536,1.6459 C3.7236,1.6459 3.4556,1.3789 3.4556,1.0479 C3.4556,0.7179 3.7236,0.4499 4.0536,0.4499 L27.9766,0.4499 C30.2126,0.4499 32.0306,2.2689 32.0306,4.5039 L32.0306,32.7469 C32.0306,33.0769 31.7626,33.3449 31.4326,33.3449" id="Fill-14" fill="#FFFFFF" mask="url(#mask-2)"></path>
                    <path d="M7.5092,4.504 C7.5092,2.596 5.9622,1.048 4.0532,1.048 C2.1452,1.048 0.5982,2.596 0.5982,4.504 L7.5092,4.504 Z" id="Fill-15" fill="#18A6B9" mask="url(#mask-2)"></path>
                    <path d="M1.2592,3.9059 L6.8482,3.9059 C6.5722,2.6159 5.4242,1.6459 4.0532,1.6459 C2.6832,1.6459 1.5352,2.6159 1.2592,3.9059 M7.5092,5.1019 L0.5982,5.1019 C0.2682,5.1019 0.0002,4.8339 0.0002,4.5039 C0.0002,2.2689 1.8182,0.4499 4.0532,0.4499 C6.2892,0.4499 8.1072,2.2689 8.1072,4.5039 C8.1072,4.8339 7.8392,5.1019 7.5092,5.1019" id="Fill-16" fill="#FFFFFF" mask="url(#mask-2)"></path>
                    <path d="M34.8882,36.4019 C36.7962,36.4019 38.3442,34.8549 38.3442,32.9459 L14.4202,32.9459 C14.4202,34.8549 12.8732,36.4019 10.9652,36.4019 L34.8882,36.4019 Z" id="Fill-17" fill="#18A6B9" mask="url(#mask-2)"></path>
                    <path d="M13.8373,35.8038 L34.8883,35.8038 C36.2593,35.8038 37.4063,34.8338 37.6823,33.5438 L14.9743,33.5438 C14.8443,34.4188 14.4343,35.2038 13.8373,35.8038 M34.8883,36.9998 L10.9653,36.9998 C10.6343,36.9998 10.3663,36.7318 10.3663,36.4018 C10.3663,36.0718 10.6343,35.8038 10.9653,35.8038 C12.5403,35.8038 13.8223,34.5218 13.8223,32.9458 C13.8223,32.6158 14.0903,32.3478 14.4203,32.3478 L38.3433,32.3478 C38.6743,32.3478 38.9413,32.6158 38.9413,32.9458 C38.9413,35.1818 37.1233,36.9998 34.8883,36.9998" id="Fill-18" fill="#FFFFFF" mask="url(#mask-2)"></path>
                </g>
            </g>
        </g>
    </g>
</svg>