<?xml version="1.0" encoding="UTF-8" standalone="no"?>
<svg width="36px" height="46px" viewBox="0 0 36 46" version="1.1" xmlns="http://www.w3.org/2000/svg" xmlns:xlink="http://www.w3.org/1999/xlink">
    <!-- Generator: sketchtool 40 (33762) - http://www.bohemiancoding.com/sketch -->
    <title>9638E380-D3C8-425F-9BB6-CCA7EAF01A55</title>
    <desc>Created with sketchtool.</desc>
    <defs></defs>
    <g id="Main-Screens" stroke="none" stroke-width="1" fill="none" fill-rule="evenodd">
        <g id="Locations" transform="translate(-17.000000, -363.000000)">
            <g id="Group-2">
                <g id="icon_nav_vendors" transform="translate(17.000000, 362.000000)">
                    <polygon id="Fill-1" fill="#18A6B9" points="27 22.8537 27 45.6537 35.062 41.1007 35.062 18.3007"></polygon>
                    <g id="Group-8" transform="translate(0.000000, 0.215900)">
                        <path d="M34.5,40.5557 L27.563,44.4737 L27.563,22.9667 L34.5,19.0487 L34.5,40.5557 Z M1.125,8.5667 L24.837,22.0547 L26.437,22.9647 L26.437,44.4707 L1.125,30.0737 L1.125,8.5667 Z M8.624,3.6937 L33.922,18.0827 L27.001,21.9907 L1.703,7.6017 L8.624,3.6937 Z M35.625,18.0847 L35.625,18.0847 C35.625,17.9837 35.598,17.8877 35.549,17.8037 C35.534,17.7767 35.504,17.7617 35.484,17.7377 C35.442,17.6867 35.404,17.6327 35.346,17.5977 L35.343,17.5977 C35.342,17.5967 35.341,17.5957 35.34,17.5957 L8.903,2.5577 C8.732,2.4607 8.521,2.4597 8.348,2.5567 L0.286,7.1107 C0.285,7.1107 0.285,7.1117 0.284,7.1127 C0.282,7.1137 0.281,7.1127 0.28,7.1137 C0.222,7.1467 0.185,7.2007 0.144,7.2497 C0.123,7.2747 0.092,7.2907 0.076,7.3177 C0.035,7.3887 0.019,7.4727 0.011,7.5567 C0.01,7.5717 0,7.5837 0,7.5987 L0,7.5997 L0,7.5997 L0,30.4007 C0,30.6027 0.109,30.7887 0.284,30.8887 L26.716,45.9227 C26.716,45.9227 26.716,45.9237 26.717,45.9237 L26.718,45.9237 L26.722,45.9267 C26.799,45.9707 26.885,45.9877 26.972,45.9927 C26.981,45.9927 26.99,45.9997 27,45.9997 C27.095,45.9997 27.191,45.9757 27.276,45.9277 L27.282,45.9237 L27.283,45.9237 L27.283,45.9237 L35.339,41.3737 C35.516,41.2737 35.625,41.0867 35.625,40.8847 L35.625,18.0857 L35.625,18.0847 Z" id="Fill-2" fill="#FFFFFF"></path>
                        <polygon id="Fill-4" fill="#33C6D9" points="13.6805 1.9091 13.6805 10.7921 15.1875 11.6491 15.1875 5.1251 21.5485 8.7431 21.5485 15.2671 23.0555 16.1241 23.0555 7.2411"></polygon>
                        <path d="M13.6805,0.784 C13.4855,0.784 13.2895,0.835 13.1145,0.937 C12.7685,1.138 12.5555,1.508 12.5555,1.909 L12.5555,10.792 C12.5555,11.196 12.7725,11.57 13.1245,11.77 L14.6315,12.627 C14.8035,12.725 14.9955,12.774 15.1875,12.774 C15.3835,12.774 15.5785,12.723 15.7535,12.622 C16.0995,12.42 16.3125,12.05 16.3125,11.649 L16.3125,7.059 L20.4235,9.397 L20.4235,15.267 C20.4235,15.672 20.6405,16.045 20.9925,16.245 L22.4995,17.102 C22.6715,17.2 22.8635,17.249 23.0555,17.249 C23.2505,17.249 23.4465,17.198 23.6215,17.097 C23.9675,16.895 24.1805,16.525 24.1805,16.124 L24.1805,7.242 C24.1805,6.837 23.9635,6.464 23.6115,6.264 L14.2365,0.931 C14.0645,0.833 13.8725,0.784 13.6805,0.784 M13.6805,1.909 L23.0555,7.242 L23.0555,16.124 L21.5485,15.267 L21.5485,8.743 L15.1875,5.125 L15.1875,11.649 L13.6805,10.792 L13.6805,1.909" id="Fill-6" fill="#FFFFFF"></path>
                    </g>
                </g>
            </g>
        </g>
    </g>
</svg>