<?xml version="1.0" encoding="UTF-8" standalone="no"?>
<svg width="42px" height="39px" viewBox="0 0 42 39" version="1.1" xmlns="http://www.w3.org/2000/svg" xmlns:xlink="http://www.w3.org/1999/xlink">
    <!-- Generator: sketchtool 40 (33762) - http://www.bohemiancoding.com/sketch -->
    <title>495C7B16-93AF-4DAB-B4A9-FB33999EB103</title>
    <desc>Created with sketchtool.</desc>
    <defs>
        <polygon id="path-1" points="0.65457 24.2105263 27.55725 24.2105263 27.55725 0.732193023 0.65457 0.732193023 0.65457 24.2105263"></polygon>
    </defs>
    <g id="Main-Screens" stroke="none" stroke-width="1" fill="none" fill-rule="evenodd">
        <g id="Locations" transform="translate(-14.000000, -296.000000)">
            <g id="Group-2">
                <g id="icon_nav_transfers" transform="translate(14.000000, 295.000000)">
                    <g id="Group-3" transform="translate(0.000000, 0.454526)" fill="#FFFFFF">
                        <path d="M1.425795,12.3381053 L11.119395,22.056 L11.119395,17.7812632 C11.119395,17.4538947 11.383995,17.1886316 11.710545,17.1886316 L25.721745,17.1886316 L25.721745,7.48757895 L11.710545,7.48757895 C11.383995,7.48757895 11.119395,7.22231579 11.119395,6.89494737 L11.119395,2.62021053 L1.425795,12.3381053 Z M11.710545,24.0770526 C11.557245,24.0770526 11.406045,24.0170526 11.292645,23.9033684 L0.173145,12.7570526 C0.061845,12.6454737 -0.000105,12.4949474 -0.000105,12.3381053 C-0.000105,12.1812632 0.061845,12.0307368 0.173145,11.9191579 L11.292645,0.771789474 C11.461695,0.602315789 11.715795,0.550736842 11.936295,0.643368421 C12.156795,0.734947368 12.300645,0.950736842 12.300645,1.19073684 L12.300645,6.30336842 L26.312895,6.30336842 C26.638395,6.30336842 26.902995,6.56863158 26.902995,6.89494737 L26.902995,17.7812632 C26.902995,18.1075789 26.638395,18.3728421 26.312895,18.3728421 L12.300645,18.3728421 L12.300645,23.4854737 C12.300645,23.7244211 12.156795,23.9402105 11.936295,24.0317895 C11.862795,24.0623158 11.786145,24.0770526 11.710545,24.0770526 L11.710545,24.0770526 Z" id="Fill-1"></path>
                    </g>
                    <polygon id="Fill-4" fill="#18A6B9" points="40.617045 27.6624211 29.497545 38.8097895 29.497545 33.1055789 14.895195 33.1055789 14.895195 22.2203158 29.497545 22.2203158 29.497545 16.5150526"></polygon>
                    <g id="Group-8" transform="translate(13.650000, 15.191368)">
                        <mask id="mask-2" fill="white">
                            <use xlink:href="#path-1"></use>
                        </mask>
                        <g id="Clip-7"></g>
                        <path d="M1.83582,17.3214737 L15.84702,17.3214737 C16.17357,17.3214737 16.43817,17.5867368 16.43817,17.9130526 L16.43817,22.1888421 L26.13177,12.4709474 L16.43817,2.75305263 L16.43817,7.02778947 C16.43817,7.35515789 16.17357,7.62042105 15.84702,7.62042105 L1.83582,7.62042105 L1.83582,17.3214737 Z M15.84702,24.2109474 C15.77142,24.2109474 15.69477,24.1962105 15.62127,24.1656842 C15.40077,24.0741053 15.25692,23.8572632 15.25692,23.6183158 L15.25692,18.5056842 L1.24572,18.5056842 C0.91917,18.5056842 0.65457,18.2404211 0.65457,17.9130526 L0.65457,7.02778947 C0.65457,6.70147368 0.91917,6.43621053 1.24572,6.43621053 L15.25692,6.43621053 L15.25692,1.32357895 C15.25692,1.08463158 15.40077,0.868842105 15.62127,0.777263158 C15.84177,0.685684211 16.09587,0.736210526 16.26492,0.905684211 L27.38442,12.052 C27.49572,12.1635789 27.55767,12.3141053 27.55767,12.4709474 C27.55767,12.6277895 27.49572,12.7783158 27.38442,12.8898947 L16.26492,24.0372632 C16.15152,24.1498947 16.00032,24.2109474 15.84702,24.2109474 L15.84702,24.2109474 Z" id="Fill-6" fill="#FFFFFF" mask="url(#mask-2)"></path>
                    </g>
                </g>
            </g>
        </g>
    </g>
</svg>