<?xml version="1.0" encoding="UTF-8" standalone="no"?>
<svg width="29px" height="35px" viewBox="0 0 29 35" version="1.1" xmlns="http://www.w3.org/2000/svg" xmlns:xlink="http://www.w3.org/1999/xlink">
    <!-- Generator: sketchtool 40 (33762) - http://www.bohemiancoding.com/sketch -->
    <title>BA92DAE2-BFA7-49E3-9C31-0155065CE9A1</title>
    <desc>Created with sketchtool.</desc>
    <defs></defs>
    <g id="Main-Screens" stroke="none" stroke-width="1" fill="none" fill-rule="evenodd">
        <g id="Onboarding---Vendors---Modal-2" transform="translate(-676.000000, -428.000000)" fill="#D6D6D6">
            <path d="M683.25,438.208333 L697.75,438.208333 L697.75,436.75 L683.25,436.75 L683.25,438.208333 Z M683.25,442.583333 L697.75,442.583333 L697.75,441.125 L683.25,441.125 L683.25,442.583333 Z M683.25,446.958333 L697.75,446.958333 L697.75,445.5 L683.25,445.5 L683.25,446.958333 Z M705,448.979583 L705,428 L676,428 L676,463 L690.77405,463 C695.3604,463 705,452.466458 705,448.979583 L705,448.979583 Z M678.9,460.083333 L678.9,430.916667 L702.1,430.916667 L702.1,447.750208 C702.1,453.739583 693.4,451.333333 693.4,451.333333 C693.4,451.333333 695.6011,460.083333 689.5749,460.083333 L678.9,460.083333 Z" id="img_placeholder_docs"></path>
        </g>
    </g>
</svg>