<svg id="Layer_1" data-name="Layer 1" xmlns="http://www.w3.org/2000/svg" viewBox="0 0 55.18 93.31">
  <title>Uptracker_logo</title>
  <path d="M23.17,9.26L28,10.84C28.35,8.93,28.92.68,19.83,0,4.3-1.05,0,21.82,6.78,33.41a20.15,20.15,0,0,0,2.32,3.26,17.75,17.75,0,0,1-3.94-1.91,9.5,9.5,0,0,1-1.65-1.54,22.52,22.52,0,0,0,1.57,14C8.59,54.63,7.17,59.56,7,67.88c0,0,4.58.75,7.05,2.85A11.78,11.78,0,0,1,17.39,75s-4.54-3.19-7.09-3.71S6,72.38,5.5,74.85,4.42,83.78,3.14,86.4A29.55,29.55,0,0,1,.07,90.9a12.58,12.58,0,0,0,0,2.4H16.94v-7c5,6.58,19.2,9.35,27,4.73,2.9,2.23,7.27,1.7,10.56.81-3.24-.7-5.16-1.58-6.36-2.68V87.79s5.32-4.72,5.32-11.32a20.09,20.09,0,0,0-3.67-11.33c-7.84,4.72-18.64.28-19.35-7.35,7.83,9.91,23.09,7,24.63-4.26C56.64,41.74,44.45,35,35.51,34.69c0,0-.54-5.47-5.4-7.61C23,23.95,16,23.06,15.58,13.35c-0.4-10,8.48-10,7.59-4.09h0Zm0.2,21.29a2.6,2.6,0,0,1,.6,5.13,2.45,2.45,0,0,0-3-3.51,2.6,2.6,0,0,1,2.41-1.62h0Z" style="fill: #fff;fill-rule: evenodd"/>
</svg>
