<?xml version="1.0" encoding="UTF-8" standalone="no"?>
<svg width="215px" height="48px" viewBox="0 0 215 48" version="1.1" xmlns="http://www.w3.org/2000/svg" xmlns:xlink="http://www.w3.org/1999/xlink">
    <!-- Generator: sketchtool 40 (33762) - http://www.bohemiancoding.com/sketch -->
    <title>9DD46500-A19C-462F-97D7-A7D48C890996</title>
    <desc>Created with sketchtool.</desc>
    <defs></defs>
    <g id="Main-Screens" stroke="none" stroke-width="1" fill="none" fill-rule="evenodd">
        <g id="Reset-Password" transform="translate(-493.000000, -57.000000)" fill="#FFFFFF">
            <path d="M692.561044,75.2673378 C692.623168,75.1099287 692.660078,74.9397918 692.660078,74.7600442 C692.660078,73.9950776 692.039359,73.3747923 691.273858,73.3747923 C691.094244,73.3747923 690.923729,73.4116769 690.766209,73.4737574 C690.968957,72.9602297 691.467508,72.5955394 692.053656,72.5955394 C692.819157,72.5955394 693.439876,73.2158247 693.439876,73.9807913 C693.439876,74.5665297 693.074931,75.0647321 692.561044,75.2673378 L692.561044,75.2673378 Z M704.363543,101.65388 L704.302199,101.700116 C706.019054,100.046541 707.088936,97.7264454 707.088936,95.1554304 C707.088936,93.2062591 706.474976,91.3999509 705.429787,89.9198899 C704.395515,90.6001777 703.156936,90.9962979 701.826081,90.9962979 C698.696233,90.9962979 696.078192,88.8071167 695.421342,85.8776453 C696.50968,88.0483842 698.756277,89.5385755 701.351184,89.5385755 C705.011815,89.5385755 707.979465,86.5729987 707.979465,82.9149258 C707.979465,81.1431644 707.283366,79.5337474 706.14928,78.345127 C704.070079,76.1673749 701.273205,74.6795214 698.137898,74.2608028 C697.689774,72.1664308 695.974219,70.5307789 693.84901,70.1647898 C690.864464,69.5995717 688.166364,66.9641384 688.166364,64.0175234 C688.160905,60.608292 689.482142,59.9155361 690.605051,59.9207312 C691.709765,59.9259262 692.387929,61.1397425 692.179983,62.024714 L694.34938,62.7340939 C694.7359,61.0903898 694.341322,58.1294885 690.883179,57.3177667 C688.669073,56.7982648 684.338336,58.1832569 683.120032,63.367107 C682.567156,65.7188923 682.278631,68.6382334 682.941979,71.9386292 C682.941979,71.9386292 683.183456,73.8184469 684.90213,75.5418946 C683.788839,75.3153917 682.780301,74.7626417 681.989846,73.9794925 C681.871576,74.6254932 681.806333,75.2901959 681.806333,75.9707434 C681.806333,77.6983471 682.20507,79.3327002 682.915466,80.7873056 C683.715538,82.8164802 684.155344,85.0272207 684.155344,87.340303 L684.018359,91.554243 C684.018359,91.554243 687.689907,92.041276 689.022062,94.6063168 C689.022062,94.6063168 685.05809,91.9763383 683.535665,93.6429005 C683.183976,94.0281112 682.179856,99.566781 682.179856,99.566781 C682.047031,100.433051 681.557318,101.701155 680.972989,102.267152 C680.631698,102.621452 680.39282,103.080692 680.312761,103.603571 C680.27663,103.838126 680.437788,104.057356 680.672507,104.093461 L688.502716,104.093461 C688.664914,104.118397 688.816715,104.006964 688.841409,103.845139 L688.994249,100.353307 C688.994249,100.353307 689.340739,102.041688 692.740397,103.333949 C694.380052,103.924623 696.147854,104.246714 697.991296,104.246714 C699.657464,104.246714 701.217839,103.796826 702.560911,103.015495 L702.349585,103.174982 C703.21906,103.525126 704.169114,103.717602 705.164135,103.717602 C706.167215,103.717602 707.124547,103.521749 708,103.16641 C706.641072,102.990559 705.395735,102.453134 704.363543,101.65388 L704.363543,101.65388 Z M519.393434,85.3872355 L519.384596,85.4438612 C519.373939,85.512955 519.364581,85.5815292 519.364321,85.649584 C519.363282,87.4839453 519.363282,92.4973987 519.363282,92.4973987 L519.761758,92.4973987 C520.204943,92.4973987 520.64319,92.4997365 521.078057,92.502334 L521.184629,92.5028535 C521.648609,92.5057108 522.10895,92.5083083 522.566951,92.5083083 C523.322835,92.5083083 523.939395,92.5007755 524.507608,92.4846709 C525.428289,92.4573971 526.209906,91.9768578 526.707937,91.1308489 C527.589888,89.6341638 527.608603,88.075658 526.763562,86.4987099 C526.292305,85.6178944 525.506269,85.0926779 524.606382,85.057092 C524.018154,85.0339742 523.382359,85.0230646 522.605421,85.0230646 C522.191868,85.0230646 521.777016,85.0264414 521.361383,85.0295584 L521.118866,85.0316364 C520.676981,85.0350132 520.233536,85.0381302 519.788791,85.0381302 L519.437103,85.0381302 L519.393434,85.3872355 Z M515.144056,103.72981 L515.144056,81.771502 C515.156533,81.7712423 517.510742,81.768385 517.510742,81.768385 C518.628712,81.7668265 519.746942,81.765268 520.864912,81.765268 C522.100632,81.765268 523.336351,81.7670863 524.572331,81.7728008 C526.958252,81.7834506 528.754646,82.5528329 530.064186,84.124586 C531.36307,85.6833516 531.919845,88.0330588 531.51721,90.2570466 C531.154084,92.2618046 530.072244,93.8691436 528.47106,94.7819085 C527.444066,95.3671274 526.326356,95.6749323 525.148601,95.6967514 C524.526063,95.7086999 523.849718,95.7141547 523.020273,95.7141547 C522.548496,95.7141547 522.074639,95.7123364 521.596882,95.7105182 L521.424547,95.7097389 C520.876089,95.7074012 520.322433,95.7050634 519.760459,95.7050634 L519.361722,95.7050634 L519.361722,103.72981 L515.144056,103.72981 Z M504.397403,103.862023 C508.30315,103.113161 510.962001,99.9901751 511.013207,96.0900143 C511.057656,92.6971472 511.052457,89.2453166 511.047778,85.8885549 L511.047258,85.6280246 C511.045439,84.3568034 511.043619,83.0855822 511.044919,81.8135817 L506.79892,81.8135817 L506.79944,85.2721658 C506.80048,88.5658081 506.801519,91.8597101 506.792682,95.1538719 C506.790342,95.9128642 506.743814,96.4837968 506.641141,97.0048573 C506.242664,99.0384476 504.513593,100.539029 502.435952,100.654099 C502.312484,100.661112 502.189796,100.664748 502.069447,100.664748 C499.852482,100.664748 498.173057,99.486518 497.576772,97.5131899 C497.378183,96.85602 497.27499,96.1157297 497.270571,95.3130992 C497.251596,92.0553026 497.253936,88.7424387 497.256015,85.5381508 L497.257575,81.7966979 L493.019374,81.7966979 C493.020414,83.1674037 493.014955,84.5383693 493.009756,85.9093349 C492.9965,89.3380477 492.982723,92.8828692 493.070581,96.3741819 C493.137643,99.0665007 494.396757,101.247889 496.711456,102.682754 C498.266893,103.646689 499.954635,104.11554 501.870858,104.11554 C502.669111,104.11554 503.519091,104.030342 504.397403,103.862023 L504.397403,103.862023 Z M674.473115,83.1484419 C674.473115,81.5844813 674.257631,81.3590175 672.664244,81.2766764 C672.454478,81.2657669 672.241854,81.2777154 672.032608,81.299015 C669.74832,81.5304531 668.201721,82.7879076 667.210339,84.7950033 C666.986537,85.2485285 666.821739,85.7311458 666.629649,86.200256 C666.583121,86.1885672 666.536333,86.1768784 666.489805,86.1651896 L666.489805,81.8018929 L662.295533,81.8018929 L662.295533,103.733966 L666.526456,103.733966 L666.526456,102.929777 C666.526456,100.609162 666.445617,98.2851698 666.551409,95.9694899 C666.640566,94.0143444 666.890102,92.0604976 667.183825,90.1235346 C667.296116,89.3832444 667.654043,88.6494479 668.028086,87.9847452 C669.407029,85.5355533 671.425665,84.8765651 674.473115,85.8721906 L674.473115,83.1484419 Z M557.726472,102.95731 C557.726472,100.613318 557.712436,98.269325 557.730631,95.925592 C557.748047,93.6504333 557.827586,91.3783916 558.651313,89.2133672 C559.399659,87.2467927 560.559998,85.6602338 562.822191,85.4277566 C563.739753,85.333467 564.695005,85.6023093 565.673132,85.7103657 C565.673132,84.6646083 565.649478,83.497807 565.685088,82.3325641 C565.698865,81.8798182 565.546024,81.6803294 565.126233,81.5359079 C563.015581,80.8096442 560.414695,81.696434 559.082021,83.6975555 C558.566575,84.4718731 558.192532,85.3402206 557.685403,86.2948054 L557.685403,81.819556 L553.485932,81.819556 L553.485932,103.742018 L557.726472,103.742018 L557.726472,102.95731 L557.726472,102.95731 Z M612.64477,83.7521032 C612.089554,83.4048161 611.555392,83.0110336 610.967685,82.7299831 C606.418864,80.5548285 601.889539,80.6685994 597.628984,83.3315663 C594.047373,85.5706197 592.645816,89.1146619 592.712879,93.2467803 C592.775783,97.1248622 594.383986,100.224211 597.693187,102.315726 C600.438595,104.051122 603.507879,104.485166 606.681136,104.143593 C608.97998,103.89605 611.046184,102.983545 612.941613,101.556214 C612.263969,100.583446 611.6027,99.6343163 610.944291,98.6888228 C608.174709,100.486819 605.276461,100.9658 602.213675,99.9748498 C599.484903,99.092216 597.697086,97.2256456 597.139531,94.3894248 C596.56508,91.4677459 597.309267,88.8988088 599.656718,86.9358708 C602.404206,84.6386332 607.061938,84.4191436 610.224537,86.4000045 C610.454318,86.5439066 610.685398,86.6862501 610.941691,86.8452177 C611.629213,85.8573847 612.268647,84.9383858 612.924457,83.9962691 C612.815805,83.9001612 612.739645,83.8113264 612.64477,83.7521032 L612.64477,83.7521032 Z M541.452093,75.4390332 L538.158487,75.4390332 C537.833831,77.5445745 537.514114,79.6202445 537.180361,81.7847493 L533.617465,81.7847493 L533.617465,85.0882621 L537.201156,85.0882621 C537.201156,85.4363284 537.200376,85.7119242 537.201156,85.98752 C537.212593,89.9037853 537.173343,93.8210897 537.251323,97.7360562 C537.315786,100.973333 539.085667,103.277064 541.92517,103.9906 C543.402627,104.361784 544.899579,104.359966 546.378336,103.966183 C549.666483,103.090563 551.33395,100.085763 550.342048,96.8204341 C550.283823,96.6292574 550.10239,96.3339205 549.969824,96.329245 C548.833139,96.2900226 547.694634,96.3069064 546.522858,96.3069064 C546.619033,96.7900432 546.711569,97.1757734 546.770574,97.5664388 C546.975661,98.9233779 546.289179,100.025242 545.024347,100.389672 C543.599396,100.800338 542.322867,100.291486 541.832634,98.9851986 C541.584659,98.3246519 541.490303,97.5729326 541.483805,96.8609552 C541.450793,93.179245 541.467689,89.4970153 541.470028,85.8150453 C541.470028,85.5895815 541.493422,85.3641177 541.509798,85.0656638 L548.424005,85.0656638 L548.424005,81.751761 L541.452093,81.751761 L541.452093,75.4390332 Z M632.523114,81.759034 C631.19018,81.759034 629.856986,81.7772166 628.524571,81.7494232 C628.036418,81.7390332 627.713842,81.8805974 627.396204,82.2733409 C625.156365,85.0433252 622.887673,87.7901917 620.62496,90.5417337 C620.536843,90.6490108 620.415974,90.7295336 620.216346,90.905385 L620.216346,71.9853843 L616.023374,71.9853843 L616.023374,103.741239 L620.235841,103.741239 L620.235841,92.5155813 C620.477578,92.8600111 620.610924,93.0366417 620.730233,93.2221039 C622.453326,95.8985779 624.116635,98.615573 625.911729,101.242694 C627.805338,104.014237 630.691629,104.828297 634.126119,103.900466 C634.845092,103.706432 635.487126,103.20823 636.141636,102.81211 C636.267443,102.736262 636.391171,102.434172 636.337625,102.320401 C635.922513,101.438287 635.463732,100.576953 635.017687,99.7075661 C634.788427,99.8408183 634.630648,99.9426407 634.464291,100.027579 C632.761473,100.894368 630.669535,100.723712 629.68517,99.4000209 C627.875,96.9651154 626.208832,94.4234521 624.494837,91.9441292 C627.264678,88.5426902 630.079228,85.3394413 632.730021,82.0052779 C632.660879,81.9231966 632.591997,81.8411153 632.523114,81.759034 L632.523114,81.759034 Z M654.63402,89.8219638 C654.437771,88.3039791 653.133169,86.5291007 651.607885,85.8269939 C648.987504,84.6212299 646.366604,84.722273 643.83772,86.0740171 C642.341808,86.8735305 641.375379,88.1728049 640.766357,89.8219638 L654.63402,89.8219638 Z M658.163385,100.116414 C655.492577,103.062769 652.196372,104.273728 648.380042,104.24048 C645.318556,104.213986 642.485811,103.457851 640.079355,101.488159 C634.207478,96.6819868 634.845872,87.0286019 641.37174,83.1375324 C645.769279,80.5156061 650.295225,80.4919688 654.63532,83.3237738 C657.265318,85.0399485 658.499997,87.7029154 658.962937,90.7417419 C659.078348,91.5004745 659.102261,92.2732336 659.177122,93.1457371 L640.358522,93.1457371 C640.305236,95.5092112 641.131562,97.3742231 642.938613,98.7142784 C645.564972,100.661891 648.510788,100.837483 651.577213,100.020046 C653.142527,99.6026267 654.47858,98.7488253 655.596031,97.8404761 C656.472263,98.6171315 657.310026,99.3597595 658.163385,100.116414 L658.163385,100.116414 Z M585.455821,92.4760991 C585.415012,92.1529689 585.388239,91.5145011 585.246835,90.902268 C584.599603,88.0992953 582.957869,86.130383 580.147738,85.3716504 C577.336567,84.6126581 574.70059,85.0391692 572.680134,87.3104317 C570.739478,89.4923398 570.401565,92.1205001 571.005909,94.8943806 C571.46157,96.9861552 572.560045,98.6683025 574.502002,99.6582134 C578.773214,101.835446 585.322476,99.7280864 585.455821,92.4760991 L585.455821,92.4760991 Z M585.369263,81.8008539 L589.605125,81.8008539 L589.605125,103.734226 L585.405394,103.734226 L585.405394,100.275901 C584.984043,100.757479 584.697858,101.113598 584.38178,101.440625 C582.439043,103.450578 580.026869,104.257884 577.273923,104.242039 C570.96016,104.205933 566.828272,99.3187189 566.518172,93.6395237 C566.317764,89.9733986 567.312266,86.72807 569.995291,84.1238068 C573.539991,80.6831455 579.571207,80.2932593 583.445762,83.2455888 C584.130685,83.7674285 584.735548,84.3942075 585.369263,84.9656597 L585.369263,81.8008539 Z" id="Uptracker-Logo"></path>
        </g>
    </g>
</svg>