<?xml version="1.0" encoding="UTF-8" standalone="no"?>
<svg
   xmlns:dc="http://purl.org/dc/elements/1.1/"
   xmlns:cc="http://creativecommons.org/ns#"
   xmlns:rdf="http://www.w3.org/1999/02/22-rdf-syntax-ns#"
   xmlns:svg="http://www.w3.org/2000/svg"
   xmlns="http://www.w3.org/2000/svg"
   xmlns:sodipodi="http://sodipodi.sourceforge.net/DTD/sodipodi-0.dtd"
   xmlns:inkscape="http://www.inkscape.org/namespaces/inkscape"
   width="82px"
   height="82px"
   viewBox="0 0 82 82"
   version="1.1"
   id="svg4822"
   inkscape:version="0.91 r13725"
   sodipodi:docname="button-invite-user.svg">
  <metadata
     id="metadata4839">
    <rdf:RDF>
      <cc:Work
         rdf:about="">
        <dc:format>image/svg+xml</dc:format>
        <dc:type
           rdf:resource="http://purl.org/dc/dcmitype/StillImage" />
        <dc:title>BA8E1AD4-79A4-4563-AB01-4479F790AC56</dc:title>
      </cc:Work>
    </rdf:RDF>
  </metadata>
  <sodipodi:namedview
     pagecolor="#ffffff"
     bordercolor="#666666"
     borderopacity="1"
     objecttolerance="10"
     gridtolerance="10"
     guidetolerance="10"
     inkscape:pageopacity="0"
     inkscape:pageshadow="2"
     inkscape:window-width="810"
     inkscape:window-height="480"
     id="namedview4837"
     showgrid="false"
     inkscape:zoom="2.8780488"
     inkscape:cx="41"
     inkscape:cy="41"
     inkscape:window-x="0"
     inkscape:window-y="0"
     inkscape:window-maximized="0"
     inkscape:current-layer="button_add_location" />
  <!-- Generator: sketchtool 40 (33762) - http://www.bohemiancoding.com/sketch -->
  <title
     id="title4824">BA8E1AD4-79A4-4563-AB01-4479F790AC56</title>
  <desc
     id="desc4826">Created with sketchtool.</desc>
  <defs
     id="defs4828" />
  <g
     id="Main-Screens"
     stroke="none"
     stroke-width="1"
     fill="none"
     fill-rule="evenodd">
    <g
       id="Onboarding---Locations"
       transform="translate(-829.000000, -494.000000)">
      <g
         id="button_add_location"
         transform="translate(830.000000, 495.000000)">
        <circle
           id="Oval"
           stroke="#33C6D9"
           fill="#F5F6F7"
           cx="40"
           cy="40"
           r="40" />
        <path
           style="fill:#33c6d9;fill-opacity:1;stroke:none"
           d="m 15.919219,61.767564 c -0.06756,-0.0128 -0.09529,-0.02446 -0.06144,-0.02731 0.03541,-0.0028 -0.0043,-0.02788 -0.09287,-0.05874 -0.290148,-0.100267 -0.473131,-0.282355 -0.572289,-0.569317 -0.03058,-0.08832 -0.05703,-0.131556 -0.05973,-0.09728 -0.0028,0.03385 -0.01593,-7.54e-4 -0.02944,-0.0768 -0.0293,-0.164609 -0.03769,-28.481192 -0.0085,-28.724179 0.01479,-0.12288 0.02645,-0.151609 0.04366,-0.10752 0.02276,0.05831 0.02361,0.05831 0.02574,-0.0028 0.0011,-0.0347 0.03698,-0.132978 0.07965,-0.218496 0.08803,-0.176811 -0.255844,0.134542 4.58403,-4.150195 l 3.171433,-2.807699 0.0085,-3.323527 0.0085,-3.32354 0.06926,-0.129707 c 0.104534,-0.195528 0.245633,-0.34122 0.419486,-0.432954 l 0.156373,-0.08249 3.796843,-0.0085 3.796843,-0.0085 1.320891,-1.143938 c 2.503671,-2.168281 2.889079,-2.475567 3.620174,-2.886362 0.78157,-0.439155 1.883481,-0.777574 2.753001,-0.845499 0.252502,-0.01977 0.271261,-0.02489 0.150272,-0.04139 -0.07609,-0.01 0.172815,-0.01891 0.553004,-0.01891 0.380189,0 0.629036,0.0085 0.553004,0.01891 -0.121032,0.0165 -0.102258,0.02176 0.150272,0.04139 0.653057,0.05106 1.585425,0.294415 2.224388,0.58068 1.023277,0.458454 1.810222,1.072144 4.734601,3.692224 l 0.672926,0.602895 3.812558,0.0085 3.812558,0.0085 0.17455,0.08576 c 0.19776,0.09714 0.342074,0.24596 0.436651,0.450362 0.06429,0.139094 0.06471,0.157853 0.07296,3.448028 l 0.0085,3.308209 3.171547,2.807728 c 4.844098,4.288406 4.49608,3.973341 4.584158,4.150081 0.04252,0.08548 0.07836,0.183794 0.07964,0.218496 0.0014,0.06116 0.0028,0.0613 0.02574,0.0028 0.01721,-0.04409 0.02887,-0.01536 0.04366,0.107521 0.02916,0.242987 0.02077,28.55957 -0.0085,28.724193 -0.01422,0.07609 -0.02674,0.110649 -0.02944,0.0768 -0.0028,-0.03413 -0.02916,0.0085 -0.05973,0.09728 -0.09913,0.286977 -0.282141,0.468993 -0.572289,0.569331 -0.08718,0.03015 -0.127574,0.05547 -0.09287,0.05817 0.557328,0.04395 -3.907733,0.05376 -23.809879,0.05191 -12.977163,-0.0011 -23.650136,-0.01138 -23.71772,-0.02404 z M 62.288601,59.85662 c 0.02745,-0.02745 0.03684,-0.34196 0.03684,-1.225488 0,-1.087747 -0.0043,-1.19393 -0.05376,-1.251103 -0.02958,-0.03442 -2.887913,-2.27967 -6.351869,-4.989578 -5.941985,-4.648528 -9.404761,-7.36054 -12.012482,-9.40806 -0.625196,-0.49091 -1.253563,-0.967398 -1.396354,-1.058889 -0.865495,-0.554512 -2.036627,-0.873958 -3.012301,-0.821634 -0.852823,0.0458 -1.883851,0.372822 -2.712624,0.860574 -0.43668,0.25701 -0.987863,0.678387 -5.567072,4.256179 -3.795236,2.965239 -13.930835,10.935004 -14.124642,11.106396 l -0.1152,0.101831 0,1.196433 c 0,0.889587 0.01,1.205876 0.03684,1.233282 0.05376,0.05376 45.218816,0.05376 45.27259,0 z m 0.02148,-14.709902 0,-9.815812 -0.06201,0 c -0.08647,0 -12.488045,9.747588 -12.488045,9.815571 0,0.03072 0.192627,0.203591 0.468524,0.420395 0.257679,0.202525 2.894825,2.274052 5.860306,4.603401 2.965481,2.329362 5.550773,4.363357 5.745092,4.519987 0.216505,0.174507 0.377103,0.282369 0.414749,0.278529 0.0613,-0.0057 0.06144,-0.02887 0.06144,-9.822071 z m -40.547404,6.136787 c 2.564968,-2.015022 5.365215,-4.208406 6.22276,-4.874192 0.972887,-0.75533 1.559157,-1.230168 1.559157,-1.262779 0,-0.06798 -12.401446,-9.815628 -12.488031,-9.815628 l -0.06215,0 -0.0085,9.769732 c -0.0043,5.373351 -0.0013,9.787013 0.0071,9.808147 0.0085,0.02119 0.03513,0.0384 0.06016,0.0384 0.02503,0 2.144189,-1.648657 4.709171,-3.66368 z m 11.443079,-8.95137 c 1.120827,-0.872136 2.174667,-1.675964 2.341864,-1.786286 0.940475,-0.620531 2.010215,-1.034355 3.167622,-1.225389 0.405462,-0.06684 1.457411,-0.0758 1.843346,-0.01564 1.41436,0.220558 2.439229,0.654124 3.625251,1.533642 0.08448,0.06258 1.00823,0.781143 2.052768,1.596661 1.044539,0.815503 1.925181,1.48274 1.956996,1.48274 0.03186,0 0.870772,-0.639845 1.864352,-1.421883 0.993566,-0.782053 2.39076,-1.882016 3.104859,-2.444393 l 1.298349,-1.022494 -0.0128,-6.826111 c -0.0071,-3.75436 -0.01422,-6.881406 -0.01422,-6.948991 -3.7e-4,-0.06755 0.0057,-1.379131 0.01422,-2.914537 0.01138,-2.080942 0.0057,-2.802508 -0.02105,-2.834309 -0.03015,-0.03627 -2.233078,-0.04252 -14.76827,-0.04181 -10.600938,5.69e-4 -14.744192,0.01 -14.773276,0.03442 -0.03328,0.02759 -0.04053,1.762436 -0.04082,9.782775 l -3.84e-4,9.749223 2.587752,2.03701 c 1.423264,1.120358 2.816162,2.219027 3.095317,2.441505 0.279168,0.222479 0.537558,0.405662 0.574194,0.40707 0.04352,0.0014 0.775255,-0.548823 2.104495,-1.583122 z m 5.524846,-9.068845 c 0,-2.224303 -0.0085,-2.921208 -0.03684,-2.949353 -0.02816,-0.02816 -0.725051,-0.03684 -2.949354,-0.03684 l -2.912489,0 0,-0.921673 0,-0.921673 2.912489,0 c 2.224303,0 2.921208,-0.0085 2.949354,-0.03683 0.02816,-0.02816 0.03684,-0.725051 0.03684,-2.949353 l 0,-2.91249 0.921673,0 0.921687,0 0,2.91249 c 0,2.224302 0.0085,2.921207 0.03684,2.949353 0.02816,0.02816 0.72505,0.03683 2.949353,0.03683 l 2.912489,0 0,0.921673 0,0.921673 -2.912489,0 c -2.224303,0 -2.921207,0.0085 -2.949353,0.03684 -0.02816,0.02816 -0.03684,0.72505 -0.03684,2.949353 l 0,2.912489 -0.921687,0 -0.921673,0 0,-2.912489 z m -15.745239,-0.774217 0,-4.992393 -0.06215,0.0014 c -0.0374,9.39e-4 -1.234733,1.039973 -3.004805,2.607393 -2.587127,2.29092 -2.941489,2.615102 -2.93324,2.683497 0.0071,0.06258 0.583041,0.529992 2.943352,2.390575 1.901159,1.498627 2.955625,2.310817 2.995433,2.307205 0.06115,-0.0057 0.06144,-0.02788 0.06144,-4.997969 z m 36.389189,2.686555 c 2.4268,-1.908953 2.950889,-2.334099 2.950889,-2.393804 0,-0.05774 -0.604545,-0.608015 -2.940876,-2.677182 -1.770841,-1.56833 -2.965638,-2.605232 -3.003113,-2.606256 -0.06229,-0.0014 -0.06229,-5.69e-4 -0.07012,4.959967 -0.0043,2.728923 -0.0013,4.978954 0.0071,5.000088 0.0085,0.02105 0.03513,0.0384 0.06016,0.0384 0.02503,0 1.3734,-1.044539 2.9964,-2.321213 z M 45.052458,17.55611 c 0.0085,-0.04409 -0.460986,-0.475038 -1.590602,-1.460071 -1.030317,-0.898447 -1.712757,-1.248244 -2.856169,-1.463967 -0.506597,-0.09557 -1.400223,-0.09557 -1.90682,0 -1.071675,0.202184 -1.806268,0.560983 -2.687194,1.312472 -0.862366,0.735674 -1.797266,1.566211 -1.797266,1.596661 0,0.02048 0.01,0.04651 0.02062,0.05788 0.01138,0.01138 2.447791,0.01707 5.41441,0.0128 4.859757,-0.0071 5.394755,-0.0128 5.403075,-0.05575 z"
           id="path3351"
           inkscape:connector-curvature="0" />
      </g>
    </g>
  </g>
</svg>
