<?xml version="1.0" encoding="UTF-8" standalone="no"?>
<svg width="122px" height="42px" viewBox="0 0 122 42" version="1.1" xmlns="http://www.w3.org/2000/svg" xmlns:xlink="http://www.w3.org/1999/xlink">
    <!-- Generator: sketchtool 40 (33762) - http://www.bohemiancoding.com/sketch -->
    <title>B3177809-2AAF-4A56-AE84-A07989E9402F</title>
    <desc>Created with sketchtool.</desc>
    <defs></defs>
    <g id="Main-Screens" stroke="none" stroke-width="1" fill="none" fill-rule="evenodd">
        <g id="Onboarding---Users" transform="translate(-70.000000, -640.000000)" stroke="#33C6D9">
            <path d="M191.423529,678.560976 L191.423529,643.439024 C191.423529,642.073171 189.870588,641 187.894118,641 L91.8941176,641 C90.4823529,641 89.2117647,641.390244 88.3647059,642.073171 C87.6588235,642.560976 72.1294118,658.853659 71.8470588,659.04878 C71.1411765,659.731707 71,660.317073 71,660.902439 C71,661.487805 71.2823529,662.073171 71.7058824,662.560976 C71.7058824,662.658537 71.9882353,662.853659 71.9882353,662.853659 C87.8,679.341463 88.2235294,679.634146 88.3647059,679.829268 C89.0705882,680.414634 90.2,680.804878 91.1882353,680.902439 L91.8941176,680.902439 L187.894118,680.902439 C189.870588,681 191.423529,679.926829 191.423529,678.560976" id="button_back_bg"></path>
        </g>
    </g>
</svg>