<?xml version="1.0" encoding="UTF-8" standalone="no"?>
<svg width="121px" height="40px" viewBox="0 0 121 40" version="1.1" xmlns="http://www.w3.org/2000/svg" xmlns:xlink="http://www.w3.org/1999/xlink">
    <!-- Generator: sketchtool 40 (33762) - http://www.bohemiancoding.com/sketch -->
    <title>D62928D2-823D-4612-95E4-8BAB79B48F2F</title>
    <desc>Created with sketchtool.</desc>
    <defs></defs>
    <g id="Main-Screens" stroke="none" stroke-width="1" fill="none" fill-rule="evenodd">
        <g id="Onboarding---Locations" transform="translate(-1010.000000, -741.000000)" fill="#F1594E">
            <path d="M1010,778.560976 L1010,743.439024 C1010,742.073171 1011.55294,741 1013.52941,741 L1109.52941,741 C1110.94118,741 1112.21176,741.390244 1113.05882,742.073171 C1113.76471,742.560976 1129.29412,758.853659 1129.57647,759.04878 C1130.28235,759.731707 1130.42353,760.317073 1130.42353,760.902439 C1130.42353,761.487805 1130.14118,762.073171 1129.71765,762.560976 C1129.71765,762.658537 1129.43529,762.853659 1129.43529,762.853659 C1113.62353,779.341463 1113.2,779.634146 1113.05882,779.829268 C1112.35294,780.414634 1111.22353,780.804878 1110.23529,780.902439 L1109.52941,780.902439 L1013.52941,780.902439 C1011.55294,781 1010,779.926829 1010,778.560976 Z" id="button_next_bg"></path>
        </g>
    </g>
</svg>