<?xml version="1.0" encoding="UTF-8" standalone="no"?>
<svg width="59px" height="65px" viewBox="0 0 59 65" version="1.1" xmlns="http://www.w3.org/2000/svg" xmlns:xlink="http://www.w3.org/1999/xlink">
    <!-- Generator: sketchtool 40 (33762) - http://www.bohemiancoding.com/sketch -->
    <title>F1E58084-1577-4175-93BA-B5649C3FBFA3</title>
    <desc>Created with sketchtool.</desc>
    <defs></defs>
    <g id="Main-Screens" stroke="none" stroke-width="1" fill="none" fill-rule="evenodd">
        <g id="Onboarding---Locations---Modal" transform="translate(-367.000000, -694.000000)">
            <g id="icon_img_placeholder_locations" transform="translate(367.000000, 694.000000)">
                <path d="M1.8027027,46.0015857 L31.1950746,62.4497286 L31.1950746,25.5211571 L1.8027027,9.07301429 L1.8027027,46.0015857 Z M31.9864259,64.5790143 C31.8518962,64.5790143 31.7189492,64.5460143 31.5986638,64.4784429 L0.623589189,47.1455857 C0.375104865,47.0057286 0.22,46.7448714 0.22,46.4604429 L0.22,7.72944286 C0.22,7.44972857 0.370356757,7.19201429 0.61251027,7.05058571 C0.853081081,6.90758571 1.1553773,6.90758571 1.39911351,7.0443 L32.3741881,24.3771571 C32.6242551,24.5170143 32.7777773,24.7778714 32.7777773,25.0623 L32.7777773,63.7933 C32.7777773,64.0730143 32.6290032,64.3307286 32.385267,64.4721571 C32.2633989,64.5444429 32.1241211,64.5790143 31.9864259,64.5790143 L31.9864259,64.5790143 Z" id="Fill-1" fill="#D6D6D6"></path>
                <path d="M20.6667779,32.6827857 L24.5238244,34.8403571 L24.5238244,29.9500714 L20.6667779,27.7925 L20.6667779,32.6827857 Z M25.1474093,35.9026429 L20.0416104,33.0442143 L20.0416104,26.7333571 L25.1474093,29.5870714 L25.1474093,35.9026429 Z" id="Fill-3" fill="#D6D6D6"></path>
                <path d="M16.1877293,30.1768286 L20.0431931,32.3328286 L20.0431931,27.4441143 L16.1877293,25.2865429 L16.1877293,30.1768286 Z M20.6667779,33.3951143 L15.5625617,30.5382571 L15.5625617,24.2242571 L20.6667779,27.0811143 L20.6667779,33.3951143 Z" id="Fill-5" fill="#D6D6D6"></path>
                <path d="M11.7085224,27.6693 L15.5639862,29.8268714 L15.5639862,24.9365857 L11.7085224,22.7805857 L11.7085224,27.6693 Z M16.187571,30.8891571 L11.0833548,28.0307286 L11.0833548,21.7183 L16.187571,24.5735857 L16.187571,30.8891571 Z" id="Fill-7" fill="#D6D6D6"></path>
                <path d="M7.22773276,25.1633429 L11.0847792,27.3209143 L11.0847792,22.4306286 L7.22773276,20.2730571 L7.22773276,25.1633429 Z M11.7083641,28.3800571 L6.60256519,25.5247714 L6.60256519,19.2139143 L11.7083641,22.0676286 L11.7083641,28.3800571 Z" id="Fill-9" fill="#D6D6D6"></path>
                <path d="M20.6667779,38.2841429 L24.5238244,40.4417143 L24.5238244,35.553 L20.6667779,33.3954286 L20.6667779,38.2841429 Z M25.1474093,41.504 L20.0416104,38.6455714 L20.0416104,32.3331429 L25.1474093,35.19 L25.1474093,41.504 Z" id="Fill-11" fill="#D6D6D6"></path>
                <path d="M16.1877293,35.7781857 L20.0431931,37.9341857 L20.0431931,33.0454714 L16.1877293,30.8894714 L16.1877293,35.7781857 Z M20.6667779,38.9964714 L15.5625617,36.1396143 L15.5625617,29.8271857 L20.6667779,32.6824714 L20.6667779,38.9964714 Z" id="Fill-13" fill="#D6D6D6"></path>
                <path d="M11.7085224,33.2706571 L15.5639862,35.4282286 L15.5639862,30.5395143 L11.7085224,28.3819429 L11.7085224,33.2706571 Z M16.187571,36.4905143 L11.0833548,33.6320857 L11.0833548,27.3196571 L16.187571,30.1765143 L16.187571,36.4905143 Z" id="Fill-15" fill="#D6D6D6"></path>
                <path d="M7.22773276,30.7645429 L11.0847792,32.9221143 L11.0847792,28.0318286 L7.22773276,25.8742571 L7.22773276,30.7645429 Z M11.7083641,33.9812571 L6.60256519,31.1259714 L6.60256519,24.8151143 L11.7083641,27.6688286 L11.7083641,33.9812571 Z" id="Fill-17" fill="#D6D6D6"></path>
                <path d="M20.6667779,43.8855 L24.5238244,46.0430714 L24.5238244,41.1543571 L20.6667779,38.9967857 L20.6667779,43.8855 Z M25.1474093,47.1053571 L20.0416104,44.2469286 L20.0416104,37.9345 L25.1474093,40.7913571 L25.1474093,47.1053571 Z" id="Fill-19" fill="#D6D6D6"></path>
                <path d="M16.1877293,41.3793857 L20.0431931,43.5353857 L20.0431931,38.6466714 L16.1877293,36.4906714 L16.1877293,41.3793857 Z M20.6667779,44.5976714 L15.5625617,41.7408143 L15.5625617,35.4283857 L20.6667779,38.2836714 L20.6667779,44.5976714 Z" id="Fill-21" fill="#D6D6D6"></path>
                <path d="M11.7085224,38.8718571 L15.5639862,41.0294286 L15.5639862,36.1407143 L11.7085224,33.9831429 L11.7085224,38.8718571 Z M16.187571,42.0917143 L11.0833548,39.2332857 L11.0833548,32.9208571 L16.187571,35.7777143 L16.187571,42.0917143 Z" id="Fill-23" fill="#D6D6D6"></path>
                <path d="M7.22773276,36.3659 L11.0847792,38.5234714 L11.0847792,33.6331857 L7.22773276,31.4756143 L7.22773276,36.3659 Z M11.7083641,39.5826143 L6.60256519,36.7273286 L6.60256519,30.4164714 L11.7083641,33.2701857 L11.7083641,39.5826143 Z" id="Fill-25" fill="#D6D6D6"></path>
                <g id="Group-31" transform="translate(30.291351, 9.579486)" fill="#D6D6D6">
                    <path d="M2.48690076,15.9413571 L2.48690076,52.8683571 L26.7829699,39.2440714 L26.7829699,2.31707143 L2.48690076,15.9413571 Z M1.69554941,54.9992143 C1.55785427,54.9992143 1.42015914,54.9646429 1.29670832,54.8923571 C1.05455481,54.7509286 0.904198054,54.4932143 0.904198054,54.2135 L0.904198054,15.4825 C0.904198054,15.1980714 1.05772022,14.9372143 1.30620454,14.7973571 L27.1833937,0.286785714 C27.4287126,0.150071429 27.7278435,0.150071429 27.9731624,0.293071429 C28.2153159,0.4345 28.3656726,0.692214286 28.3656726,0.971928571 L28.3656726,39.7029286 C28.3656726,39.9873571 28.2121505,40.2482143 27.9636662,40.3880714 L2.08489427,54.8986429 C1.96460886,54.9662143 1.83007914,54.9992143 1.69554941,54.9992143 L1.69554941,54.9992143 Z" id="Fill-29"></path>
                </g>
                <path d="M37.6314517,29.7778429 L37.6314517,34.4858429 L41.042176,32.5718429 L41.042176,27.8654143 L37.6314517,29.7778429 Z M37.0062841,35.5481286 L37.0062841,29.4164143 L41.6673436,26.8031286 L41.6673436,32.9348429 L37.0062841,35.5481286 Z" id="Fill-32" fill="#D6D6D6"></path>
                <path d="M41.667027,27.5159286 L41.667027,32.2223571 L45.0761686,30.3099286 L45.0761686,25.6019286 L41.667027,27.5159286 Z M41.0418595,33.2846429 L41.0418595,27.1545 L45.7013362,24.5396429 L45.7013362,30.6729286 L41.0418595,33.2846429 Z" id="Fill-34" fill="#D6D6D6"></path>
                <path d="M45.7010197,25.2522857 L45.7010197,29.9602857 L49.111744,28.0462857 L49.111744,23.3398571 L45.7010197,25.2522857 Z M45.0758521,31.0225714 L45.0758521,24.8908571 L49.7369116,22.2775714 L49.7369116,28.4092857 L45.0758521,31.0225714 Z" id="Fill-36" fill="#D6D6D6"></path>
                <path d="M49.736595,22.9903714 L49.736595,27.6968 L53.1473194,25.7843714 L53.1473194,21.0763714 L49.736595,22.9903714 Z M49.1114275,28.7590857 L49.1114275,22.6289429 L53.7724869,20.0140857 L53.7724869,26.1473714 L49.1114275,28.7590857 Z" id="Fill-38" fill="#D6D6D6"></path>
                <path d="M37.6314517,35.1980143 L37.6314517,39.9044429 L41.042176,37.9920143 L41.042176,33.2840143 L37.6314517,35.1980143 Z M37.0062841,40.9667286 L37.0062841,34.8365857 L41.6673436,32.2217286 L41.6673436,38.3550143 L37.0062841,40.9667286 Z" id="Fill-40" fill="#D6D6D6"></path>
                <path d="M41.667027,32.9345286 L41.667027,37.6425286 L45.0761686,35.7285286 L45.0761686,31.0221 L41.667027,32.9345286 Z M41.0418595,38.7048143 L41.0418595,32.5731 L45.7013362,29.9598143 L45.7013362,36.0915286 L41.0418595,38.7048143 Z" id="Fill-42" fill="#D6D6D6"></path>
                <path d="M45.7010197,30.6726143 L45.7010197,35.3790429 L49.111744,33.4666143 L49.111744,28.7586143 L45.7010197,30.6726143 Z M45.0758521,36.4413286 L45.0758521,30.3111857 L49.7369116,27.6963286 L49.7369116,33.8296143 L45.0758521,36.4413286 Z" id="Fill-44" fill="#D6D6D6"></path>
                <path d="M49.736595,28.4089714 L49.736595,33.1169714 L53.1473194,31.2045429 L53.1473194,26.4965429 L49.736595,28.4089714 Z M49.1114275,34.1792571 L49.1114275,28.0475429 L53.7724869,25.4342571 L53.7724869,31.5675429 L49.1114275,34.1792571 Z" id="Fill-46" fill="#D6D6D6"></path>
                <path d="M45.7010197,36.0912143 L45.7010197,40.7992143 L49.111744,38.8867857 L49.111744,34.1787857 L45.7010197,36.0912143 Z M45.0758521,41.8615 L45.0758521,35.7297857 L49.7369116,33.1165 L49.7369116,39.2497857 L45.0758521,41.8615 Z" id="Fill-48" fill="#D6D6D6"></path>
                <path d="M49.736595,33.8291429 L49.736595,38.5371429 L53.1473194,36.6231429 L53.1473194,31.9167143 L49.736595,33.8291429 Z M49.1114275,39.5994286 L49.1114275,33.4677143 L53.7724869,30.8544286 L53.7724869,36.9861429 L49.1114275,39.5994286 Z" id="Fill-50" fill="#D6D6D6"></path>
                <path d="M37.8386275,50.2846714 L37.8386275,60.0055286 L41.9536545,57.6986714 L41.9536545,47.9778143 L37.8386275,50.2846714 Z M37.2134599,61.0662429 L37.2134599,49.9232429 L42.5772394,46.9155286 L42.5772394,58.0601 L37.2134599,61.0662429 Z" id="Fill-52" fill="#D6D6D6"></path>
                <g id="Group-56" transform="translate(0.000000, 0.150914)" fill="#D6D6D6">
                    <path d="M2.62190962,7.5779 L31.9873756,24.0071857 L56.2549561,10.3986143 L41.4361107,2.10932857 L27.1759594,10.1047571 C26.9338058,10.2399 26.6394231,10.2399 26.3972696,10.1047571 L12.2399939,2.18318571 L2.62190962,7.5779 Z M31.9873756,25.6949 C31.8528458,25.6949 31.7198988,25.6619 31.5996134,25.5943286 L0.622956108,8.26304286 C0.374471784,8.12318571 0.219366919,7.86232857 0.219366919,7.5779 C0.219366919,7.29504286 0.372889081,7.03261429 0.621373405,6.89275714 L11.8506491,0.597614286 C12.0912199,0.462471429 12.3871853,0.462471429 12.6277561,0.597614286 L26.7866145,8.51918571 L41.0467658,0.522185714 C41.2889194,0.387042857 41.5833021,0.387042857 41.8254556,0.522185714 L58.2523269,9.71347143 C58.5023939,9.85332857 58.6559161,10.1141857 58.6559161,10.3986143 C58.6559161,10.6830429 58.5039766,10.9439 58.2539096,11.0821857 L32.3767204,25.5943286 C32.256435,25.6619 32.1219053,25.6949 31.9873756,25.6949 L31.9873756,25.6949 Z" id="Fill-54"></path>
                </g>
                <polygon id="Fill-57" fill="#F5F6F7" points="17.9362992 13.6774571 13.268909 11.0657429 13.268909 5.22945714 17.9362992 7.84117143"></polygon>
                <path d="M13.5802266,10.8839286 L17.624032,13.1452143 L17.624032,8.02235714 L13.5802266,5.7595 L13.5802266,10.8839286 Z M17.9358244,13.9875 C17.8835952,13.9875 17.8313661,13.9733571 17.7823023,13.9466429 L13.114912,11.3349286 C13.0167844,11.2799286 12.955059,11.1777857 12.955059,11.0646429 L12.955059,5.22835714 C12.955059,5.11835714 13.0152017,5.01778571 13.1101639,4.96121429 C13.2082915,4.90464286 13.3238288,4.90621429 13.4203736,4.95807143 L18.0893466,7.57135714 C18.1874742,7.62635714 18.2476169,7.7285 18.2476169,7.84007143 L18.2476169,13.6763571 C18.2476169,13.7879286 18.1890569,13.8885 18.0940947,13.9435 C18.0434482,13.9733571 17.9896363,13.9875 17.9358244,13.9875 L17.9358244,13.9875 Z" id="Fill-59" fill="#D6D6D6"></path>
                <polygon id="Fill-61" fill="#F5F6F7" points="21.8359204 11.4908143 17.936141 13.6782429 17.936141 7.84038571 21.8359204 5.65452857"></polygon>
                <path d="M18.2479334,8.02188571 L18.2479334,13.1463143 L21.5225453,11.3093143 L21.5225453,6.18488571 L18.2479334,8.02188571 Z M17.936141,13.9870286 C17.8823291,13.9870286 17.8269345,13.9728857 17.7778707,13.9446 C17.6829085,13.8880286 17.6227658,13.7874571 17.6227658,13.6774571 L17.6227658,7.84117143 C17.6227658,7.72802857 17.6844912,7.62588571 17.7826188,7.57088571 L21.6823983,5.38345714 C21.7789431,5.3316 21.8960631,5.33002857 21.992608,5.3866 C22.0891529,5.4416 22.1477129,5.54374286 22.1477129,5.65374286 L22.1477129,11.4900286 C22.1477129,11.6016 22.0875702,11.7053143 21.9878599,11.7603143 L18.0880804,13.9477429 C18.0405994,13.9728857 17.9883702,13.9870286 17.936141,13.9870286 L17.936141,13.9870286 Z" id="Fill-63" fill="#D6D6D6"></path>
                <polygon id="Fill-65" fill="#F5F6F7" points="17.1788177 3.02662857 13.2679594 5.2282 17.9369323 7.84148571 21.8367118 5.65405714"></polygon>
                <path d="M13.9016735,5.22741429 L17.9359827,7.48555714 L21.2010984,5.65327143 L17.1778681,3.38255714 L13.9016735,5.22741429 Z M17.9359827,8.15027143 C17.8837535,8.15027143 17.8299416,8.1377 17.7824605,8.11098571 L13.1150703,5.49927143 C13.01536,5.44427143 12.9552173,5.34055714 12.9552173,5.22898571 C12.9552173,5.11741429 13.01536,5.0137 13.1134876,4.9587 L17.0243459,2.75712857 C17.1193081,2.70527143 17.2364281,2.70527143 17.332973,2.75712857 L21.9892843,5.38455714 C22.0874119,5.43955714 22.1475546,5.54327143 22.1475546,5.65327143 C22.1475546,5.76641429 22.0874119,5.86855714 21.9877016,5.92355714 L18.0895049,8.11098571 C18.0404411,8.1377 17.9882119,8.15027143 17.9359827,8.15027143 L17.9359827,8.15027143 Z" id="Fill-67" fill="#D6D6D6"></path>
            </g>
        </g>
    </g>
</svg>