<?xml version="1.0" encoding="UTF-8" standalone="no"?>
<svg width="111px" height="123px" viewBox="0 0 111 123" version="1.1" xmlns="http://www.w3.org/2000/svg" xmlns:xlink="http://www.w3.org/1999/xlink">
    <!-- Generator: sketchtool 40 (33762) - http://www.bohemiancoding.com/sketch -->
    <title>73CB1858-6F85-4DF4-9A05-BC31DD558EB4</title>
    <desc>Created with sketchtool.</desc>
    <defs></defs>
    <g id="Main-Screens" stroke="none" stroke-width="1" fill="none" fill-rule="evenodd">
        <g id="Onboarding---Locations" transform="translate(-546.000000, -70.000000)">
            <g id="icon_onboarding_locations" transform="translate(546.000000, 70.000000)">
                <polygon id="Fill-1" fill="#18A6B9" points="0 88.6390366 60.3438574 122.70273 60.3438574 46.583997 0 12.520304"></polygon>
                <polygon id="Fill-2" fill="#139AAC" points="60.3433711 46.583997 60.3433711 122.70273 110.758396 94.184997 110.758396 18.0662644"></polygon>
                <polygon id="Fill-3" fill="#067382" points="80.369434 111.436912 71.137298 116.658931 71.137298 96.1569017 80.369434 90.9348819"></polygon>
                <polygon id="Fill-4" fill="#43D6E9" points="78.7536582 0.000121782178 50.2134333 16.1435673 21.8750435 0.147478218 0.000243174924 12.5205475 60.3428847 46.5830228 110.75791 18.0665079"></polygon>
                <polygon id="Fill-5" fill="#33C6D9" points="32.9722096 24.212002 23.8786833 19.0788832 23.8786833 7.6082198 32.9722096 12.7413386"></polygon>
                <polygon id="Fill-6" fill="#18A6B9" points="40.5694805 19.9145525 32.9726959 24.2122455 32.9726959 12.7415822 40.5694805 8.44388911"></polygon>
                <polygon id="Fill-7" fill="#43D6E9" points="31.4967457 3.28020297 23.8792912 7.60834158 32.9728175 12.7414604 40.5696021 8.44376733"></polygon>
                <polygon id="Fill-8" fill="#FFFFFF" points="38.9004494 61.207601 38.9004494 52.9946109 45.1962482 56.5482149 45.1962482 64.761205"></polygon>
                <polygon id="Fill-9" fill="#FFFFFF" points="30.1732662 56.2804158 30.1732662 48.0674257 36.469065 51.6210297 36.469065 59.8340198"></polygon>
                <polygon id="Fill-10" fill="#FFFFFF" points="21.4466908 51.3544485 21.4466908 43.1426762 27.7412738 46.6950624 27.7412738 54.9068347"></polygon>
                <polygon id="Fill-11" fill="#FFFFFF" points="12.719386 46.4284812 12.719386 38.2154911 19.0151848 41.769095 19.0151848 49.9820851"></polygon>
                <polygon id="Fill-12" fill="#FFFFFF" points="38.9004494 72.2156139 38.9004494 64.0026238 45.1962482 67.5562277 45.1962482 75.7692178"></polygon>
                <polygon id="Fill-13" fill="#FFFFFF" points="30.1732662 67.2895248 30.1732662 59.0765347 36.469065 62.6301386 36.469065 70.8431287"></polygon>
                <polygon id="Fill-14" fill="#FFFFFF" points="21.4466908 62.3623396 21.4466908 54.1505673 27.7412738 57.7029535 27.7412738 65.9159436"></polygon>
                <polygon id="Fill-15" fill="#FFFFFF" points="12.719386 57.4363723 12.719386 49.2233822 19.0151848 52.7769861 19.0151848 60.9899762"></polygon>
                <polygon id="Fill-16" fill="#FFFFFF" points="38.9004494 83.223505 38.9004494 75.0105149 45.1962482 78.5641188 45.1962482 86.7771089"></polygon>
                <polygon id="Fill-17" fill="#FFFFFF" points="30.1732662 78.2975376 30.1732662 70.0845475 36.469065 73.6381515 36.469065 81.8511416"></polygon>
                <polygon id="Fill-18" fill="#FFFFFF" points="21.4466908 73.3715703 21.4466908 65.1585802 27.7412738 68.7121842 27.7412738 76.9239564"></polygon>
                <polygon id="Fill-19" fill="#FFFFFF" points="12.719386 68.4443851 12.719386 60.231395 19.0151848 63.784999 19.0151848 71.9979891"></polygon>
                <polygon id="Fill-20" fill="#FFFFFF" points="71.9481648 56.2090515 77.377045 53.137705 77.377045 60.9902198 71.9481648 64.0615663"></polygon>
                <polygon id="Fill-21" fill="#FFFFFF" points="79.809159 51.762297 85.2380392 48.6909505 85.2380392 56.5446832 79.809159 59.6148119"></polygon>
                <polygon id="Fill-22" fill="#FFFFFF" points="87.6702748 47.3156644 93.099155 44.2443178 93.099155 52.0980505 87.6702748 55.169397"></polygon>
                <polygon id="Fill-23" fill="#FFFFFF" points="95.531269 42.8689099 100.960149 39.7975634 100.960149 47.651296 95.531269 50.7226426"></polygon>
                <polygon id="Fill-24" fill="#FFFFFF" points="71.9481648 66.8590248 77.377045 63.7876782 77.377045 71.6414109 71.9481648 74.7127574"></polygon>
                <polygon id="Fill-25" fill="#FFFFFF" points="79.809159 62.4123921 85.2380392 59.3422634 85.2380392 67.1947782 79.809159 70.2661248"></polygon>
                <polygon id="Fill-26" fill="#FFFFFF" points="87.6702748 57.9668554 93.099155 54.8955089 93.099155 62.7480238 87.6702748 65.8193703"></polygon>
                <polygon id="Fill-27" fill="#FFFFFF" points="95.531269 53.520101 100.960149 50.4487545 100.960149 58.3024871 95.531269 61.3726158"></polygon>
                <polygon id="Fill-28" fill="#FFFFFF" points="87.6702748 68.6168287 93.099155 65.5454822 93.099155 73.3992149 87.6702748 76.4705614"></polygon>
                <polygon id="Fill-29" fill="#FFFFFF" points="95.531269 64.1700743 100.960149 61.0999455 100.960149 68.9524604 95.531269 72.0238069"></polygon>
            </g>
        </g>
    </g>
</svg>