<?xml version="1.0" encoding="UTF-8" standalone="no"?>
<svg width="163px" height="123px" viewBox="0 0 163 123" version="1.1" xmlns="http://www.w3.org/2000/svg" xmlns:xlink="http://www.w3.org/1999/xlink">
    <!-- Generator: sketchtool 40 (33762) - http://www.bohemiancoding.com/sketch -->
    <title>48C49148-B05C-4966-BE38-B727CFD5CEF3</title>
    <desc>Created with sketchtool.</desc>
    <defs></defs>
    <g id="Main-Screens" stroke="none" stroke-width="1" fill="none" fill-rule="evenodd">
        <g id="Onboarding---Users" transform="translate(-519.000000, -73.000000)">
            <g id="icon_onboarding_users" transform="translate(519.000000, 73.000000)">
                <path d="M83.3404933,72.6221176 C69.59516,69.4409412 56.7999822,66.6512941 62.9966489,54.9204706 C81.8608044,19.2122353 67.9952933,0.117647059 48.0795822,0.117647059 C27.7657822,0.117647059 14.2495378,19.9463529 33.1625156,54.9204706 C39.54696,66.7190588 26.2673156,69.5087059 12.8186711,72.6221176 C0.538004444,75.4682353 0.0760711111,81.5821176 0.117382222,92.2701176 L0.132404444,96.2757647 L96.0192489,96.2757647 L96.0342711,92.3943529 C96.0830933,81.6235294 95.6662267,75.4795294 83.3404933,72.6221176" id="Fill-1" fill="#43D6E9"></path>
                <path d="M150.001604,72.6221176 C136.256271,69.4409412 123.461093,66.6512941 129.65776,54.9204706 C148.521916,19.2122353 134.656404,0.117647059 114.740693,0.117647059 C94.4268933,0.117647059 80.9106489,19.9463529 99.8236267,54.9204706 C106.208071,66.7190588 92.9284267,69.5087059 79.4797822,72.6221176 C67.1991156,75.4682353 66.7371822,81.5821176 66.7784933,92.2701176 L66.7935156,96.2757647 L162.68036,96.2757647 L162.695382,92.3943529 C162.744204,81.6235294 162.327338,75.4795294 150.001604,72.6221176" id="Fill-5" fill="#18A6B9"></path>
                <path d="M120.861122,94.2021647 C105.2981,90.5993412 90.8166778,87.4445176 97.8283,74.1626353 C119.186144,33.7372235 103.487922,12.1165176 80.9395667,12.1165176 C57.9443,12.1165176 42.6404111,34.5654588 64.0545889,74.1626353 C71.2802778,87.5198118 56.2467889,90.6784 41.0217667,94.2021647 C27.1149444,97.4209882 26.5966778,104.344282 26.6417444,116.447812 L26.6605222,120.984282 L135.214856,120.984282 L135.233633,116.587106 C135.286211,104.393224 134.816767,97.4360471 120.861122,94.2021647" id="Fill-9" stroke="#F5F6F7" stroke-width="3" fill="#33C6D9"></path>
            </g>
        </g>
    </g>
</svg>