<?xml version="1.0" encoding="UTF-8" standalone="no"?>
<svg width="76px" height="142px" viewBox="0 0 76 142" version="1.1" xmlns="http://www.w3.org/2000/svg" xmlns:xlink="http://www.w3.org/1999/xlink">
    <!-- Generator: sketchtool 40 (33762) - http://www.bohemiancoding.com/sketch -->
    <title>7514AA00-8416-4369-B33A-D054C04DB111</title>
    <desc>Created with sketchtool.</desc>
    <defs></defs>
    <g id="Main-Screens" stroke="none" stroke-width="1" fill="none" fill-rule="evenodd">
        <g id="Onboarding---Products---Empty" transform="translate(-560.000000, -61.000000)">
            <g id="icon_onboarding_products" transform="translate(559.000000, 61.000000)">
                <g id="Group-20" transform="translate(0.000000, 0.713877)">
                    <g id="Paste">
                        <path d="M46.7014435,138.426769 L2.85935652,138.426769 C2.34718261,138.426769 1.85483478,138.215203 1.50457391,137.83835 C1.15431304,137.464802 0.972573913,136.962331 1.00231304,136.449944 L7.43918261,34.2434183 C7.50196522,33.2649225 8.31153043,32.5012991 9.29292174,32.5012991 L40.2645739,32.5012991 C41.2459652,32.5012991 42.0588348,33.2649225 42.118313,34.2434183 L48.5551826,136.449944 C48.5882261,136.962331 48.406487,137.464802 48.0562261,137.83835 C47.7026609,138.215203 47.2136174,138.426769 46.7014435,138.426769 L46.7014435,138.426769 Z" id="Fill-2" fill="#18A6B9"></path>
                        <polygon id="Fill-1" fill="#139AAD" points="40.2645739 34.3611022 31.5972696 34.3611022 36.3158783 136.567627 46.7014435 136.567627"></polygon>
                        <path d="M33.8293565,30.4159603 L15.7281391,30.4159603 C15.1961391,30.4159603 14.6905739,30.187865 14.3370087,29.7911775 C13.9867478,29.3911843 13.8182261,28.8622677 13.884313,28.3333511 L17.1027478,1.77512535 C17.2150957,0.839604084 18.0081391,0.138789563 18.9465739,0.138789563 L30.6109217,0.138789563 C31.5526609,0.138789563 32.3424,0.839604084 32.4547478,1.77512535 L35.6731826,28.3333511 C35.7392696,28.8622677 35.5707478,29.3911843 35.220487,29.7911775 C34.8669217,30.187865 34.3613565,30.4159603 33.8293565,30.4159603 L33.8293565,30.4159603 Z" id="Fill-7" fill="#FFFFFF"></path>
                        <polygon id="Fill-5" fill="#E9ECEF" points="30.6112522 1.99925377 25.1425565 1.99925377 28.1197739 28.5574795 33.829687 28.5574795"></polygon>
                        <polygon id="Fill-9" fill="#33C6D9" points="44.6890957 105.801209 19.1332696 105.801209 19.1332696 59.4945588 41.8737913 59.4945588 41.8737913 60.7342071 20.3724 60.7342071 20.3724 104.561561 44.6890957 104.561561"></polygon>
                        <polygon id="Fill-11" fill="#18A6B9" points="42.2746087 128.738339 47.9052174 128.738339 47.9052174 127.498691 42.2746087 127.498691"></polygon>
                        <polygon id="Fill-13" fill="#33C6D9" points="4.46956522 129.138332 36.2441739 129.138332 36.2441739 127.898684 4.46956522 127.898684"></polygon>
                    </g>
                    <polygon id="Path" fill="#FFFFFF" points="63.842087 30.323485 72.6184348 30.323485 72.6184348 6.01646058 63.842087 6.01646058"></polygon>
                    <g id="Brush" transform="translate(60.000000, 2.000000)">
                        <polygon id="Triangle" fill="#139AAC" points="10.7902376 54.1768554 14.5 53.2861225 13 128.286123 4 128.286123"></polygon>
                        <path d="M2.36273043,128.408063 L2.36273043,130.920417 C2.36273043,134.26912 5.0756,136.979818 8.4196,136.979818 C11.7636,136.979818 14.4764696,134.26912 14.4764696,130.920417 L14.4764696,128.408063 L2.36273043,128.408063 Z" id="Fill-14" fill="#139AAC"></path>
                        <path d="M3.84208696,28.323485 L12.6184348,28.323485 L12.6184348,4.01646058 L3.84208696,4.01646058 L3.84208696,28.323485 Z M4.22208696,131.009341 C4.26834783,133.283682 6.132,135.121668 8.4186087,135.121668 C10.7349565,135.121668 12.6184348,133.237402 12.6184348,130.923392 L12.6184348,55.9031809 L11.9873043,55.9031809 L4.22208696,131.009341 Z M8.4186087,138.840613 C4.05356522,138.840613 0.504695652,135.29026 0.504695652,130.923392 C0.504695652,130.857277 0.508,130.794469 0.514608696,130.73166 L8.46486957,53.8503233 C8.56069565,52.9015791 9.36034783,52.184236 10.312,52.184236 L12.6184348,52.184236 L12.6184348,32.0424299 L1.98504348,32.0424299 C0.957391304,32.0424299 0.124695652,31.2093863 0.124695652,30.1846103 L0.124695652,2.15864095 C0.124695652,1.13055927 0.957391304,0.297515598 1.98504348,0.297515598 L14.4754783,0.297515598 C15.5031304,0.297515598 16.3358261,1.13055927 16.3358261,2.15864095 L16.3358261,130.923392 C16.3358261,135.29026 12.7836522,138.840613 8.4186087,138.840613 L8.4186087,138.840613 Z" id="Fill-15" fill="#18A6B9"></path>
                        <polygon id="Fill-16" fill="#18A6B9" points="1.98173913 24.7433806 14.4754783 24.7433806 14.4754783 23.5037323 1.98173913 23.5037323"></polygon>
                        <polygon id="Fill-17" fill="#18A6B9" points="1.98173913 17.1699558 14.4754783 17.1699558 14.4754783 15.9303074 1.98173913 15.9303074"></polygon>
                        <polygon id="Fill-18" fill="#18A6B9" points="1.98173913 9.59653091 14.4754783 9.59653091 14.4754783 8.35688259 1.98173913 8.35688259"></polygon>
                        <polygon id="Fill-19" fill="#18A6B9" points="2.74173913 128.51021 14.8554783 128.51021 14.8554783 127.270562 2.74173913 127.270562"></polygon>
                    </g>
                </g>
            </g>
        </g>
    </g>
</svg>