<?xml version="1.0" encoding="UTF-8" standalone="no"?>
<svg width="214px" height="106px" viewBox="0 0 214 106" version="1.1" xmlns="http://www.w3.org/2000/svg" xmlns:xlink="http://www.w3.org/1999/xlink">
    <!-- Generator: sketchtool 40 (33762) - http://www.bohemiancoding.com/sketch -->
    <title>B068F8D9-1522-4C7E-9C86-DBE2095C6CBC</title>
    <desc>Created with sketchtool.</desc>
    <defs></defs>
    <g id="Main-Screens" stroke="none" stroke-width="1" fill="none" fill-rule="evenodd">
        <g id="Onboarding---Accounting" transform="translate(-512.000000, -87.000000)">
            <g id="icon_onboarding_accounting" transform="translate(512.000000, 87.000000)">
                <g id="Calculator">
                    <path d="M0.0692696653,44.4899097 L0.0692696653,51.8363935 C0.101939267,53.3357806 1.13189145,54.828329 3.1591262,55.9652645 L89.2074181,104.183297 C93.3272269,106.493071 100.065762,106.489652 104.183851,104.178168 L173.615352,65.1872645 C175.666659,64.0366516 176.694892,62.5201677 176.70177,61.0036839 L176.70177,53.6794258 L0.0692696653,44.4899097 Z" id="Fill-1" fill="#139AAC"></path>
                    <path d="M3.15517146,40.725371 C-0.962917803,43.0368548 -0.96119835,46.8169516 3.15861037,49.1267258 L89.2069023,97.3447581 C93.326711,99.6545323 100.065246,99.6511129 104.183336,97.3379194 L173.614836,58.3487258 C177.732926,56.0372419 177.731206,52.2571452 173.611397,49.9490806 L87.5631055,1.72933871 C83.4432968,-0.578725806 76.7047616,-0.575306452 72.5883918,1.73617742 L3.15517146,40.725371 Z" id="Fill-4" fill="#43D6E9"></path>
                    <polygon id="Fill-7" fill="#18A6B9" points="14.9096942 43.5877129 32.8315499 53.6081323 97.3591716 17.7271323 79.4373158 7.7067129"></polygon>
                    <g id="Group" transform="translate(37.000000, 21.000000)" fill="#18A6B9">
                        <polygon id="Fill-9" points="16.2600237 45.1484548 27.4141135 51.3853581 40.4836737 44.1055516 29.3295839 37.8703581"></polygon>
                        <polygon id="Fill-11" points="33.7000888 35.4475742 44.8541786 41.6844774 57.9237387 34.404671 46.7696489 28.1694774"></polygon>
                        <polygon id="Fill-13" points="50.9661452 25.8306387 62.120235 32.0675419 75.1897952 24.7877355 64.0357054 18.5525419"></polygon>
                        <polygon id="Fill-15" points="68.5905356 16.1068484 79.7446254 22.3437516 92.8141855 15.0639452 81.6600957 8.82875161"></polygon>
                        <polygon id="Fill-17" points="0.784949253 36.8137774 11.9390391 43.0506806 25.0085992 35.7708742 13.8545094 29.5356806"></polygon>
                        <polygon id="Fill-19" points="18.2250143 27.1128968 29.3791041 33.3498 42.4486642 26.0699935 31.2945744 19.8348"></polygon>
                        <polygon id="Fill-21" points="35.4910707 17.4959613 46.6451605 23.7328645 59.7147207 16.4530581 48.5606309 10.2178645"></polygon>
                        <polygon id="Fill-23" points="53.1154611 7.77217097 64.2695509 14.0090742 77.3391111 6.72926774 66.1850213 0.494074194"></polygon>
                        <polygon id="Fill-25" points="31.305235 53.6968419 42.4593248 59.9337452 55.528885 52.6539387 44.3747952 46.4187452"></polygon>
                        <polygon id="Fill-27" points="48.7453001 43.9959613 59.8993899 50.2328645 72.96895 42.9530581 61.8148602 36.7178645"></polygon>
                        <polygon id="Fill-29" points="66.0113565 34.3790258 77.1654463 40.615929 90.2350065 33.3361226 79.0809167 27.100929"></polygon>
                        <polygon id="Fill-31" points="83.6357469 24.6552355 94.7898367 30.8921387 107.859397 23.6123323 96.705307 17.3771387"></polygon>
                        <path d="M46.5653779,61.8178097 L57.7194677,68.0547129 L70.7890279,60.7749065 L59.6349381,54.5397129 L46.5653779,61.8178097" id="Fill-33"></path>
                        <polygon id="Fill-35" points="64.005443 52.116929 75.1595328 58.3538323 88.2290929 51.0740258 77.0750031 44.8388323"></polygon>
                        <polygon id="Fill-37" points="81.2714994 42.4999935 92.4255892 48.7368968 105.495149 41.4570903 94.3410596 35.2218968"></polygon>
                        <polygon id="Fill-39" points="98.8958898 32.7762032 110.04998 39.0131065 123.11954 31.7333 111.96545 25.4981065"></polygon>
                    </g>
                    <g id="Group" transform="translate(37.000000, 20.000000)" fill="#FFFFFF">
                        <polygon id="Fill-9" points="16.2600237 45.1484548 27.4141135 51.3853581 40.4836737 44.1055516 29.3295839 37.8703581"></polygon>
                        <polygon id="Fill-11" points="33.7000888 35.4475742 44.8541786 41.6844774 57.9237387 34.404671 46.7696489 28.1694774"></polygon>
                        <polygon id="Fill-13" points="50.9661452 25.8306387 62.120235 32.0675419 75.1897952 24.7877355 64.0357054 18.5525419"></polygon>
                        <polygon id="Fill-15" points="68.5905356 16.1068484 79.7446254 22.3437516 92.8141855 15.0639452 81.6600957 8.82875161"></polygon>
                        <polygon id="Fill-17" points="0.784949253 36.8137774 11.9390391 43.0506806 25.0085992 35.7708742 13.8545094 29.5356806"></polygon>
                        <polygon id="Fill-19" points="18.2250143 27.1128968 29.3791041 33.3498 42.4486642 26.0699935 31.2945744 19.8348"></polygon>
                        <polygon id="Fill-21" points="35.4910707 17.4959613 46.6451605 23.7328645 59.7147207 16.4530581 48.5606309 10.2178645"></polygon>
                        <polygon id="Fill-23" points="53.1154611 7.77217097 64.2695509 14.0090742 77.3391111 6.72926774 66.1850213 0.494074194"></polygon>
                        <polygon id="Fill-25" points="31.305235 53.6968419 42.4593248 59.9337452 55.528885 52.6539387 44.3747952 46.4187452"></polygon>
                        <polygon id="Fill-27" points="48.7453001 43.9959613 59.8993899 50.2328645 72.96895 42.9530581 61.8148602 36.7178645"></polygon>
                        <polygon id="Fill-29" points="66.0113565 34.3790258 77.1654463 40.615929 90.2350065 33.3361226 79.0809167 27.100929"></polygon>
                        <polygon id="Fill-31" points="83.6357469 24.6552355 94.7898367 30.8921387 107.859397 23.6123323 96.705307 17.3771387"></polygon>
                        <path d="M46.5653779,61.8178097 L57.7194677,68.0547129 L70.7890279,60.7749065 L59.6349381,54.5397129 L46.5653779,61.8178097" id="Fill-33"></path>
                        <polygon id="Fill-35" points="64.005443 52.116929 75.1595328 58.3538323 88.2290929 51.0740258 77.0750031 44.8388323"></polygon>
                        <polygon id="Fill-37" points="81.2714994 42.4999935 92.4255892 48.7368968 105.495149 41.4570903 94.3410596 35.2218968"></polygon>
                        <polygon id="Fill-39" points="98.8958898 32.7762032 110.04998 39.0131065 123.11954 31.7333 111.96545 25.4981065"></polygon>
                    </g>
                </g>
                <g id="Pencil" transform="translate(120.430100, 0.000000)">
                    <path d="M7.30182792,12.0014226 C5.07169774,10.589229 10.2145808,2.55887419 12.444711,3.97106774 L15.1150211,5.44993871 C12.8848909,4.03774516 7.74200782,12.0681 9.972138,13.4802935 L7.30182792,12.0014226 Z" id="Fill-41" fill="#FFFFFF"></path>
                    <path d="M0.802124694,8.47982903 C-1.42800548,7.06763548 3.7148776,-0.962719355 5.94500778,0.449474194 L12.4445391,3.97140968 C10.2144089,2.55921613 5.0715258,10.589571 7.30165598,12.0017645 L0.802124694,8.47982903 Z" id="Fill-43" fill="#139AAC"></path>
                    <path d="M9.97265383,13.4799516 C7.74252366,12.0677581 12.8854067,4.03740323 15.1155369,5.44959677 L85.4153614,44.5806935 C83.1852312,43.1685 78.0423481,51.1988548 80.2724783,52.6110484 L9.97265383,13.4799516 Z" id="Fill-45" fill="#18A6B9"></path>
                    <path d="M90.8128954,54.2743935 C90.2678289,53.9290387 91.5247489,51.9646194 92.0698154,52.3099742 L85.4155333,44.5805226 C83.1854032,43.168329 78.0425201,51.1986839 80.2726503,52.6108774 L90.8128954,54.2743935 Z" id="Fill-47" fill="#43D6E9"></path>
                    <path d="M90.8128954,54.2743935 C90.2678289,53.9290387 91.5247489,51.9646194 92.0698154,52.3099742 L93.5451058,54.4402323 L90.8128954,54.2743935 Z" id="Fill-49" fill="#139AAC"></path>
                </g>
            </g>
        </g>
    </g>
</svg>