<?xml version="1.0" encoding="UTF-8" standalone="no"?>
<svg width="19px" height="19px" viewBox="0 0 19 19" version="1.1" xmlns="http://www.w3.org/2000/svg" xmlns:xlink="http://www.w3.org/1999/xlink">
    <!-- Generator: sketchtool 40 (33762) - http://www.bohemiancoding.com/sketch -->
    <title>6DA3E8AD-99E6-4B5B-84A7-FEF6D779CAF4</title>
    <desc>Created with sketchtool.</desc>
    <defs></defs>
    <g id="Main-Screens" stroke="none" stroke-width="1" fill="none" fill-rule="evenodd">
        <g id="Onboarding---Products---Empty" transform="translate(-850.000000, -412.000000)" fill="#404852">
            <path d="M852.410625,419.702917 C852.410625,416.700917 854.852917,414.258625 857.854917,414.258625 C860.856917,414.258625 863.299208,416.700917 863.299208,419.702917 C863.299208,422.704917 860.856917,425.147208 857.854917,425.147208 C854.852125,425.147208 852.410625,422.704917 852.410625,419.702917 M869,429.136417 L864.087708,424.224125 C865.011583,422.9535 865.557833,421.39075 865.557833,419.702917 C865.557833,415.455625 862.102208,412 857.854125,412 C853.606833,412 850.151208,415.455625 850.151208,419.702917 C850.151208,423.951 853.606833,427.405833 857.854125,427.405833 C859.464375,427.405833 860.959833,426.909458 862.198,426.061583 L867.136417,431 L869,429.136417" id="icon_search"></path>
        </g>
    </g>
</svg>